<svg id="Layer_1" data-name="Layer 1" xmlns="http://www.w3.org/2000/svg" width="80" height="80" viewBox="0 0 80 80"><title>customise-icon</title><g id="customize_basic_0_Layer1_0_FILL" data-name="customize basic 0 Layer1 0 FILL"><path d="M46.7814,6.1182l-.041-.0043-.0452.0367a.267.267,0,0,1-.09.0733h0q-7.11,6.5841-19.2675,5.3542a1.7565,1.7565,0,0,0-.6679.0544q-.1028.0722-.2218.1424a1.21,1.21,0,0,1-.1314.069L15.58,18.3378a2.0142,2.0142,0,0,0-.407.33L2.6813,34.0425a.9554.9554,0,0,1-.1442.1919Q.9465,37.0075,3.02,40.7A24.9269,24.9269,0,0,0,7.8149,46.706a21.7852,21.7852,0,0,0,6.7305,4.511,5.1868,5.1868,0,0,0,3.59.4993,3.1078,3.1078,0,0,0,2.2714-2.3288l.2475-.3881a.3071.3071,0,0,0,.0989-.1552q.03.0053.0453-.0366h0l3.0322-4.8569,1.9064,18.99a.2291.2291,0,0,1,.0324.0861q1.3539,8.4973,8.92,10.4929,7.0051,1.9884,19.7117-2.0793,12.7557-4.0912,16.8053-9.916,4.4863-6.1563-.3922-14.0719a.13.13,0,0,0-.0324-.0862l-6.92-12.6017,3.3408,1.301a1.2607,1.2607,0,0,0,.5237.1375q6.5774.1585,9.627-8.5551a.299.299,0,0,0,.0128-.1228q1.797-7.2107-2.0971-12.0151a1.8041,1.8041,0,0,0-.5757-.4327L58.11,8.2125a1.4781,1.4781,0,0,1-.2414-.0666l-9.7021-2.214a1.3407,1.3407,0,0,0-.528-.0966q-.1235-.0021-.2909.011a.1478.1478,0,0,1-.0861.0324h0l-.2133.06q-.0888.0549-.1766.1057-.042.032-.09.0733m2.6178,2.6741q.4779-.6123,1.8614-.3849A39.2093,39.2093,0,0,1,59.7931,11.12q6.9748,2.9639,8.3736,3.441,2.4419.7932,2.8384.9588a9.6876,9.6876,0,0,1,2.5415,1.4245,7.3279,7.3279,0,0,1,2.1486,3.2045,9.6711,9.6711,0,0,1,.589,3.8694A5.1479,5.1479,0,0,1,75.7,26.4405a3.23,3.23,0,0,1-1.02,1.0523,2.6558,2.6558,0,0,1,.4742.2151,1.1867,1.1867,0,0,1,.4815,1.3334,2.6843,2.6843,0,0,1-.8482.9875,27.8966,27.8966,0,0,1-5.4679,3.609,6.5377,6.5377,0,0,1-2.5012.5664,9.5733,9.5733,0,0,1-2.5085-.5518q-1.194-.4558-1.2716-.5054l-1.0865-.6929-.9484-.43a6.609,6.609,0,0,1-1.6988-1.1709Q60.8206,33.7369,62.75,37.09q5.9226,10.2626,6.6131,11.5764a23.0755,23.0755,0,0,1,1.9212,4.588,5.8171,5.8171,0,0,1-.21,3.9928,2.6326,2.6326,0,0,1-.297.4656.5265.5265,0,0,1,.069.1314,1.3149,1.3149,0,0,1-.0336,1.114,1.4494,1.4494,0,0,1-.2023.3514l-.0042.0409q.097.2586-.228.5971A20.6,20.6,0,0,1,64.01,65.0357a59.1688,59.1688,0,0,1-7.6745,3.337q-4.9976,1.8785-7.77,2.6649a34.2967,34.2967,0,0,1-8.0552,1.4348,15.6219,15.6219,0,0,1-5.4-.6056,9.2527,9.2527,0,0,1-3.0652-1.562,3.0548,3.0548,0,0,1-.6294-.3141,6.5885,6.5885,0,0,1-1.2485-1.1237,9.7185,9.7185,0,0,1-1.4947-1.936,11.5158,11.5158,0,0,1-.5939-1.8418q-.2249-1.0169-.2444-1.2258l-.0526-1.0816q-.004-1.5559-.0042-2.7321a54.0588,54.0588,0,0,1-.8671-6.7543q-.129-2.3313-.2139-3.4991a35.5391,35.5391,0,0,0-.3324-3.5528q-.4155-2.3611-.5823-3.5376a13.3041,13.3041,0,0,1-.1406-3.4086,33.631,33.631,0,0,0-5.56,7.6556,8.5754,8.5754,0,0,1-.9985,1.6341,2.83,2.83,0,0,1-1.4385,1.0913,4.0234,4.0234,0,0,1-2.7841-.2909,18.4961,18.4961,0,0,1-6.4286-4.2311,17.84,17.84,0,0,1-4.12-6.5148A1.9147,1.9147,0,0,1,4.2286,37.06q.6025-1.0132,2.5078-.2347a27.2934,27.2934,0,0,1,8.2588,5.333q1.0522,1.02,1.7177.5933a1.462,1.462,0,0,1-.1582-1.2582,3.22,3.22,0,0,1,.1827-.56q-.0177,0-.0367-.0453a.4226.4226,0,0,1-.0947.1143,1.2585,1.2585,0,0,1-1.5644-.0807,5.3651,5.3651,0,0,1-1.1127-1.2337q-2.4915-3.4887-5.28-3.7387A10.9146,10.9146,0,0,1,7.298,35.808a1.822,1.822,0,0,1-1.1036-.5292,1.7121,1.7121,0,0,1-.1717-1.9219A6.0491,6.0491,0,0,1,7.34,31.839l.23-.2243.5359-.7718q1.6659-2.4748,2.8691-4.0875l2.176-3.001q1.75-2.0936,2.03-2.3954a22.4241,22.4241,0,0,1,4.6754-3.1538l4.9-2.9233a2.5953,2.5953,0,0,1,1.719-.6068,1.0214,1.0214,0,0,1,.8965.135.7863.7863,0,0,1,.3409.6979.0666.0666,0,0,1-.0042.0409q.1812.2325.3623.4932a15.4574,15.4574,0,0,0,4.2782,4.2134,9.4324,9.4324,0,0,0,5.5431,1.6139,11.75,11.75,0,0,0,5-1.5057,10.7519,10.7519,0,0,1-1.7557.5616,8.67,8.67,0,0,1-2.1846.31,17.4151,17.4151,0,0,1-2.1052-.0544,8.8863,8.8863,0,0,1-2.0709-.3819,4.3706,4.3706,0,0,1-.9032-.4669q-.7394-.45-.8946-.5488-.7523-.3269-1.1079-.4882a6.2623,6.2623,0,0,1-1.0541-.6068,7.0319,7.0319,0,0,1-1.6847-2.4939,2.6841,2.6841,0,0,1-.3484-1.8161,1.85,1.85,0,0,1,1.6023-1.0743q.2089-.0195,2.01.1687a20.5069,20.5069,0,0,0,3.2815-.1124,15.7756,15.7756,0,0,0,2.4388-.366,14.3683,14.3683,0,0,0,1.6652-.4883l1.6737-.57a21.9227,21.9227,0,0,0,2.13-.9777,7.9921,7.9921,0,0,0,1.3676-.8091q.3574-.2523,1.04-.8433a1.5057,1.5057,0,0,1,1.254-.1173q.67.3183.7748,1.6951a12.33,12.33,0,0,1-.5885,5.2364,6.3235,6.3235,0,0,1-1.4849,2.3282,10.9009,10.9009,0,0,0,2.3942-2.316,6.0278,6.0278,0,0,0,1.1531-5.0946q-.2462-.8121-.3305-1.1934a1.2646,1.2646,0,0,1,.234-1.0517m8.6015,19.4826a1.4682,1.4682,0,0,0,.0623-.2q-.1264-.1-.2652-.2346.1022.2349.2029.4351M37.47,52.4534q.07-.0722.14-.151a1.5512,1.5512,0,0,1-.11-.1356Z"/><path d="M48.0218,10.8834q-.1044-1.3767-.7748-1.6951a1.5057,1.5057,0,0,0-1.254.1173q-.6825.591-1.04.8433a7.9921,7.9921,0,0,1-1.3676.8091,21.9227,21.9227,0,0,1-2.13.9777l-1.6737.57a14.3683,14.3683,0,0,1-1.6652.4883,15.7756,15.7756,0,0,1-2.4388.366,20.5069,20.5069,0,0,1-3.2815.1124q-1.8015-.1883-2.01-.1687a1.85,1.85,0,0,0-1.6023,1.0743,2.6841,2.6841,0,0,0,.3484,1.8161,7.0319,7.0319,0,0,0,1.6847,2.4939,6.2623,6.2623,0,0,0,1.0541.6068q.3556.1613,1.1079.4882.1552.099.8946.5488a4.3706,4.3706,0,0,0,.9032.4669,8.8863,8.8863,0,0,0,2.0709.3819,17.4151,17.4151,0,0,0,2.1052.0544,8.67,8.67,0,0,0,2.1846-.31,10.7519,10.7519,0,0,0,1.7557-.5616A9.9565,9.9565,0,0,0,45.1259,19.19a5.7174,5.7174,0,0,0,.8225-.7418A6.3235,6.3235,0,0,0,47.4333,16.12a12.33,12.33,0,0,0,.5885-5.2364M70.0956,57.1039a2.2359,2.2359,0,0,0-1.2258.2444,23.6032,23.6032,0,0,1-10.6878,2.07,26.0006,26.0006,0,0,1-10.6548-2.6033,27.2156,27.2156,0,0,1-4.8526-3.0731,28.0206,28.0206,0,0,1-7.7686-9.6277A33.57,33.57,0,0,1,31.4492,32.04a2.431,2.431,0,0,0-.5744-1.6328,1.4477,1.4477,0,0,0-1.8271.0574,7.5322,7.5322,0,0,0-1.2766,1.5222,18.5656,18.5656,0,0,1-8.1781,6.9681A9.8253,9.8253,0,0,0,17.22,40.28a2.7644,2.7644,0,0,0-.4326.5756.0373.0373,0,0,1-.041-.0042c-.0195.0256-.0345.0379-.0452.0366q.019.0451.0367.0453a3.22,3.22,0,0,0-.1827.56,1.462,1.462,0,0,0,.1582,1.2582q-.6654.4272-1.7177-.5933a27.2934,27.2934,0,0,0-8.2588-5.333q-1.9053-.7785-2.5078.2347a1.9147,1.9147,0,0,0,.0831,1.5814,17.84,17.84,0,0,0,4.12,6.5148,18.4961,18.4961,0,0,0,6.4286,4.2311,4.0234,4.0234,0,0,0,2.7841.2909,2.83,2.83,0,0,0,1.4385-1.0913,8.5754,8.5754,0,0,0,.9985-1.6341,33.631,33.631,0,0,1,5.56-7.6556,13.3041,13.3041,0,0,0,.1406,3.4086q.1668,1.1765.5823,3.5376a35.5391,35.5391,0,0,1,.3324,3.5528q.0849,1.1677.2139,3.4991a54.0588,54.0588,0,0,0,.8671,6.7543q0,1.1761.0042,2.7321l.0526,1.0816q.02.209.2444,1.2258a11.5158,11.5158,0,0,0,.5939,1.8418,9.7185,9.7185,0,0,0,1.4947,1.936,6.5885,6.5885,0,0,0,1.2485,1.1237,3.0548,3.0548,0,0,0,.6294.3141,9.2527,9.2527,0,0,0,3.0652,1.562,15.6219,15.6219,0,0,0,5.4.6056,34.2967,34.2967,0,0,0,8.0552-1.4348q2.7726-.7865,7.77-2.6649a59.1688,59.1688,0,0,0,7.6745-3.337,20.6,20.6,0,0,0,6.3675-5.0878q.3252-.3385.228-.5971L70.61,59.31a1.4494,1.4494,0,0,0,.2023-.3514,1.3149,1.3149,0,0,0,.0336-1.114.5265.5265,0,0,0-.069-.1314.8924.8924,0,0,0-.6814-.6092M37.61,52.3024q-.07.0789-.14.151l.03-.2866a1.5512,1.5512,0,0,0,.11.1356M72.7949,28.4962a10.8152,10.8152,0,0,1-3.5461.6642,26.9861,26.9861,0,0,1-4.9992-.481,13.49,13.49,0,0,1-4.0173-1.1647,21.1123,21.1123,0,0,1-1.7764-1.22,6.9081,6.9081,0,0,0-1.88-1.0241q.5472,1.229,1.2215,2.57.1388.1343.2652.2346a1.4682,1.4682,0,0,1-.0623.2,2.194,2.194,0,0,0-.0471.45,2.7947,2.7947,0,0,0,.5353,1.2149,5.9036,5.9036,0,0,0,.8152.9129,6.609,6.609,0,0,0,1.6988,1.1709l.9484.43,1.0865.6929q.0776.05,1.2716.5054a9.5733,9.5733,0,0,0,2.5085.5518,6.5377,6.5377,0,0,0,2.5012-.5664,27.8966,27.8966,0,0,0,5.4679-3.609,2.6843,2.6843,0,0,0,.8482-.9875,1.1867,1.1867,0,0,0-.4815-1.3334,2.6558,2.6558,0,0,0-.4742-.2151,1.643,1.643,0,0,0-.9673.1472,2.912,2.912,0,0,0-.872.8195A.2.2,0,0,1,72.7949,28.4962Z" fill="#24848e"/><path d="M51.2606,8.4074q-1.3836-.2274-1.8614.3849a1.2646,1.2646,0,0,0-.234,1.0517q.0843.3813.3305,1.1934a6.0278,6.0278,0,0,1-1.1531,5.0946,10.9009,10.9009,0,0,1-2.3942,2.316,5.7174,5.7174,0,0,1-.8225.7418,9.9565,9.9565,0,0,1-2.2335,1.1739,11.75,11.75,0,0,1-5,1.5057,9.4324,9.4324,0,0,1-5.5431-1.6139,15.4574,15.4574,0,0,1-4.2782-4.2134q-.1812-.2607-.3623-.4932a.0666.0666,0,0,0,.0042-.0409.7863.7863,0,0,0-.3409-.6979,1.0214,1.0214,0,0,0-.8965-.135,2.5953,2.5953,0,0,0-1.719.6068l-4.9,2.9233a22.4241,22.4241,0,0,0-4.6754,3.1538q-.28.3019-2.03,2.3954l-2.176,3.001q-1.2033,1.6126-2.8691,4.0875l-.5359.7718-.23.2243a6.0491,6.0491,0,0,0-1.3175,1.5179,1.7121,1.7121,0,0,0,.1717,1.9219,1.822,1.822,0,0,0,1.1036.5292,10.9146,10.9146,0,0,0,1.3511.1411q2.7883.25,5.28,3.7387a5.3651,5.3651,0,0,0,1.1127,1.2337,1.2585,1.2585,0,0,0,1.5644.0807.4226.4226,0,0,0,.0947-.1143c.0107.0013.0257-.011.0452-.0366a.0373.0373,0,0,0,.041.0042A2.7644,2.7644,0,0,1,17.22,40.28a9.8253,9.8253,0,0,1,2.3735-1.3248,18.5656,18.5656,0,0,0,8.1781-6.9681,7.5322,7.5322,0,0,1,1.2766-1.5222,1.4477,1.4477,0,0,1,1.8271-.0574,2.431,2.431,0,0,1,.5744,1.6328A33.57,33.57,0,0,0,34.906,44.1145a28.0206,28.0206,0,0,0,7.7686,9.6277,27.2156,27.2156,0,0,0,4.8526,3.0731A26.0006,26.0006,0,0,0,58.182,59.4186a23.6032,23.6032,0,0,0,10.6878-2.07,2.2359,2.2359,0,0,1,1.2258-.2444.8924.8924,0,0,1,.6814.6092,2.6326,2.6326,0,0,0,.297-.4656,5.8171,5.8171,0,0,0,.21-3.9928,23.0755,23.0755,0,0,0-1.9212-4.588Q68.6724,47.3528,62.75,37.09q-1.9291-3.3534-3.4458-6.2373a5.9036,5.9036,0,0,1-.8152-.9129,2.7947,2.7947,0,0,1-.5353-1.2149,2.194,2.194,0,0,1,.0471-.45q-.1007-.2-.2029-.4351-.6743-1.3407-1.2215-2.57a6.9081,6.9081,0,0,1,1.88,1.0241,21.1123,21.1123,0,0,0,1.7764,1.22A13.49,13.49,0,0,0,64.25,28.6794a26.9861,26.9861,0,0,0,4.9992.481,10.8152,10.8152,0,0,0,3.5461-.6642A.2.2,0,0,0,72.84,28.46a2.912,2.912,0,0,1,.872-.8195,1.643,1.643,0,0,1,.9673-.1472,3.23,3.23,0,0,0,1.02-1.0523,5.1479,5.1479,0,0,0,.5842-2.4223,9.6711,9.6711,0,0,0-.589-3.8694,7.3279,7.3279,0,0,0-2.1486-3.2045A9.6876,9.6876,0,0,0,71.0051,15.52q-.3965-.1656-2.8384-.9588-1.3988-.4771-8.3736-3.441A39.2093,39.2093,0,0,0,51.2606,8.4074Z" fill="#59cde2"/></g><g id="customize_basic_0_Layer0_0_FILL" data-name="customize basic 0 Layer0 0 FILL"><path d="M46.7814,6.1182l-.041-.0043-.0452.0367a.267.267,0,0,1-.09.0733h0q-7.11,6.5841-19.2675,5.3542a1.7565,1.7565,0,0,0-.6679.0544q-.1028.0722-.2218.1424a1.21,1.21,0,0,1-.1314.069L15.58,18.3378a2.0142,2.0142,0,0,0-.407.33L2.6813,34.0425a.9554.9554,0,0,1-.1442.1919Q.9465,37.0075,3.02,40.7A24.9269,24.9269,0,0,0,7.8149,46.706a21.7852,21.7852,0,0,0,6.7305,4.511,5.1868,5.1868,0,0,0,3.59.4993,3.1078,3.1078,0,0,0,2.2714-2.3288l.2475-.3881a.3071.3071,0,0,0,.0989-.1552q.03.0053.0453-.0366h0l3.0322-4.8569,1.9064,18.99a.2291.2291,0,0,1,.0324.0861q1.3539,8.4973,8.92,10.4929,7.0051,1.9884,19.7117-2.0793,12.7557-4.0912,16.8053-9.916,4.4863-6.1563-.3922-14.0719a.13.13,0,0,0-.0324-.0862l-6.92-12.6017,3.3408,1.301a1.2607,1.2607,0,0,0,.5237.1375q6.5774.1585,9.627-8.5551a.299.299,0,0,0,.0128-.1228q1.797-7.2107-2.0971-12.0151a1.8041,1.8041,0,0,0-.5757-.4327L58.11,8.2125a1.4781,1.4781,0,0,1-.2414-.0666l-9.7021-2.214a1.3407,1.3407,0,0,0-.528-.0966q-.1235-.0021-.2909.011a.1478.1478,0,0,1-.0861.0324h0l-.2133.06q-.0888.0549-.1766.1057-.042.032-.09.0733M74.638,26.702q-.1.2851-.2237.5561a.186.186,0,0,1-.0538.1186,7.9029,7.9029,0,0,1-.4387,1.03,6.0464,6.0464,0,0,1-.4712.9442h0q-2.0925,3.7391-5.5022,3.9365L61.7454,30.86q-1.5961-1.176-2.8416-2.118Q57.83,27.91,57.03,27.2629a.2918.2918,0,0,1-.0495.0776l-.0043.0409.1014.2176,2.3655,5.09q.0528.0924.1057.1766l8.76,15.981q.0374.032.0366.0453Q71.3448,53.7483,69.95,57.71a8.4223,8.4223,0,0,1-1.0908,2.121,1.1327,1.1327,0,0,1-.1895.2286,16.466,16.466,0,0,1-2.9044,2.8421.1109.1109,0,0,1-.0862.0324,29.9975,29.9975,0,0,1-6.55,3.6615q-.8978.4149-1.9041.7944a.9682.9682,0,0,1-.1723.0648q-1.6487.6436-3.5242,1.246-11.66,3.7338-18.0525,2.0458-5.763-1.5844-6.8538-8.0835l-2.165-21.6658,1.3017-5.3274L19.7463,45.014A30.7909,30.7909,0,0,0,17.87,42.3759a.2112.2112,0,0,0-.0733-.09q-.5452-.7353-1.1366-1.4018a18.9363,18.9363,0,0,0-7.2334-5.64q-1.7928-.6962-3.067-1.1483L16.8126,21.1983l.0777.05-.041-.0043q2.6525,1.02,4.7591,1.9873l-1.9151-2.27-.1381-.2627-.38-.3294q.0451-.0368-.0281-.1271l-.1186-.0538-.0605-.2133-.2285-.1894,7.7339-4.6967q4.52,10.0557,14.6445,7.2,10.05-2.6211,8.3651-13.1156l7.5579,1.7417,16.1869,6.6993q2.6886,3.6761,1.41,9.0874M46.67,9.9558q.933,7.5427-6.2972,9.5652-7.364,1.9641-10.9108-4.9064,10.3893.4626,17.208-4.6588M4.8122,36.6244q1.2648.3939,3.55,1.2814,3.63,1.5106,7.2144,6.2172A20.4926,20.4926,0,0,1,17.9405,47.64a.9507.9507,0,0,0,.0648.1723l-.099.1552a3.0566,3.0566,0,0,0-.2108.4333.2893.2893,0,0,1-.0581.16.4591.4591,0,0,1-.1032.1961.3677.3677,0,0,1-.1809.1467,3.0762,3.0762,0,0,1-1.7025-.3435,18.9416,18.9416,0,0,1-5.84-3.9213,22.4085,22.4085,0,0,1-4.2445-5.3274L5.53,39.2654A4.7427,4.7427,0,0,1,4.8122,36.6244Z"/><path d="M8.3619,37.9058q-2.2848-.8875-3.55-1.2814a4.7427,4.7427,0,0,0,.7173,2.641l.0367.0453a22.4085,22.4085,0,0,0,4.2445,5.3274,18.9416,18.9416,0,0,0,5.84,3.9213,3.0762,3.0762,0,0,0,1.7025.3435.3677.3677,0,0,0,.1809-.1467.4591.4591,0,0,0,.1032-.1961.2893.2893,0,0,0,.0581-.16,3.0566,3.0566,0,0,1,.2108-.4333l.099-.1552a.9507.9507,0,0,1-.0648-.1723,20.4926,20.4926,0,0,0-2.3642-3.5168q-3.585-4.7065-7.2144-6.2172M40.3729,19.521q7.23-2.0225,6.2972-9.5652-6.8187,5.1213-17.208,4.6588,3.5467,6.87,10.9108,4.9064M65.6787,62.9336a.1109.1109,0,0,0,.0862-.0324,16.466,16.466,0,0,0,2.9044-2.8421,1.1327,1.1327,0,0,0,.1895-.2286A8.4223,8.4223,0,0,0,69.95,57.71q-.1542.1177-.3123.2157a21.9843,21.9843,0,0,1-9.8531,3.1922,24.8636,24.8636,0,0,1-10.238-1.4422,27.5606,27.5606,0,0,1-8.9633-5.3238,31.97,31.97,0,0,1-5.4087-6.07q-1.26-2.6313-2.355-5.5853-3.1-8.3542-2.7352-12.2473a22.6985,22.6985,0,0,1-4.7316,5.6727A20.799,20.799,0,0,1,16.66,40.8837q.5914.6666,1.1366,1.4018a.2112.2112,0,0,1,.0733.09,30.7909,30.7909,0,0,1,1.8766,2.6381l8.0126-9.3446-1.3017,5.3274,2.165,21.6658q1.0908,6.4992,6.8538,8.0835Q41.869,72.434,53.5285,68.7q1.8756-.6022,3.5242-1.246a.9682.9682,0,0,0,.1723-.0648q1.0063-.38,1.9041-.7944a29.9975,29.9975,0,0,0,6.55-3.6615m8.6818-35.5569a.186.186,0,0,0,.0538-.1186,15.107,15.107,0,0,1-2.3178.7926,14.5869,14.5869,0,0,1-5.3714.3079,21.5024,21.5024,0,0,1-6.7543-1.906,14.7025,14.7025,0,0,1-5.1221-3.2668q1.016,2.2443,2.2292,4.4132l-.1014-.2176.0043-.0409a.2918.2918,0,0,0,.0495-.0776q.7994.6468,1.8735,1.4788,1.2454.942,2.8416,2.118l6.203,2.4279q3.41-.1975,5.5022-3.9365h0a6.0464,6.0464,0,0,0,.4712-.9442A7.9029,7.9029,0,0,0,74.3605,27.3767Z" fill="#24848e"/><path d="M74.4143,27.2581q.1239-.2709.2237-.5561,1.279-5.4114-1.41-9.0874L57.0414,10.9153,49.4835,9.1736q1.6854,10.4946-8.3651,13.1156-10.1243,2.8552-14.6445-7.2L18.74,19.7855l.2285.1894.0605.2133.1186.0538q.0734.09.0281.1271l.38.3294.1381.2627,1.9151,2.27q-2.1066-.9672-4.7591-1.9873l.041.0043-.0777-.05L6.3594,34.0957q1.2742.4521,3.067,1.1483a18.9363,18.9363,0,0,1,7.2334,5.64,20.799,20.799,0,0,0,8.6926-4.7621,22.6985,22.6985,0,0,0,4.7316-5.6727q-.3648,3.8931,2.7352,12.2473,1.0951,2.954,2.355,5.5853a31.97,31.97,0,0,0,5.4087,6.07,27.5606,27.5606,0,0,0,8.9633,5.3238,24.8636,24.8636,0,0,0,10.238,1.4422,21.9843,21.9843,0,0,0,9.8531-3.1922q.1583-.0979.3123-.2157,1.395-3.9612-1.6035-8.8179.0007-.0133-.0366-.0453l-8.76-15.981q-.053-.0843-.1057-.1766l-2.3655-5.09q-1.2132-2.1689-2.2292-4.4132a14.7025,14.7025,0,0,0,5.1221,3.2668,21.5024,21.5024,0,0,0,6.7543,1.906,14.5869,14.5869,0,0,0,5.3714-.3079A15.107,15.107,0,0,0,74.4143,27.2581Z" fill="#59cde2"/></g><g id="customize_basic_0_Layer0_1_FILL" data-name="customize basic 0 Layer0 1 FILL"><path d="M55.0269,28.9852l-.0087-.079q-2.31.8139-8.0175,2.7213L43.1875,26.769a.9971.9971,0,0,0-.369.2805l-1.4633,5.5989q-.15.8162-.3176,1.4744-5.6826,2.8642-8.1945,4.02l6.4057,2.2542L37.4537,52.43q2.6626-2.6919,7.8839-9.0242a1.9307,1.9307,0,0,1,.58-.5436l.7111-.0782a79.3779,79.3779,0,0,1,9.9874,2.1l.07-.0877a107.5687,107.5687,0,0,1-6.2572-9.6278q.7736-.9646,3.622-4.8767Q54.6049,29.5115,55.0269,28.9852Z"/></g></svg>