<svg xmlns="http://www.w3.org/2000/svg" xmlns:xlink="http://www.w3.org/1999/xlink" viewBox="0 0 422.99 119.712" xmlns:v="https://vecta.io/nano"><path d="M.224 14.787v-.156c.01.052.01.105 0 .156M18.353 25.18v.078a1.12 1.12 0 0 0 .159.625.77.77 0 0 0 .159.156l.398.156-.716-1.016M4.28 19.71a.68.68 0 0 0 .318.078c-.514-.291-.7-.369-.557-.234l.159.156c.026.009.054.009.08 0m-.239-.078l.08.078h.08l-.159-.078m.398-14.301l.636-1.016-.477.234c-.114.245-.169.512-.159.781m1.272-1.25h-.398c-.041.045-.098.073-.159.078l.557-.078m5.486-.234l.557.313-.08-.078c-.049-.033-.103-.059-.159-.078l-.318-.156M41.73.798c-.137.039-.271.091-.398.156-1.722.928-3.09 2.382-3.896 4.142.013.053.013.079 0 .078a9.16 9.16 0 0 0-.557 5.47v.078a.75.75 0 0 0 .08.313 6.76 6.76 0 0 0 2.067 3.204l-.08-.078c.238.239.505.449.795.625a.9.9 0 0 0 .398.313 1.39 1.39 0 0 0 .795.234l11.768 5.158-17.254.391c-1.805-4.154-5.205-7.44-9.462-9.143-.424-.156-.822-.313-1.193-.469L10.959 5.018l-.08-.078c-1.672-.729-3.6-.612-5.168.313a.07.07 0 0 0-.08.059c-1.651.917-2.962 2.315-3.737 4.005-.727 1.65-.894 3.486-.477 5.236v.078c.291 1.171.927 2.231 1.829 3.048a7.55 7.55 0 0 0 .954.781l.08.078c.111.001.22.028.318.078a.46.46 0 0 1 .318.156l14.63 6.408v.078c2.119 1.014 3.707 2.858 4.373 5.08-.14.095-.272.2-.398.313-.165.227-.249.502-.239.781l-.08.078 1.113-.234.08.234.08-.078v.156l-1.193.156.159.469c.092.117.199.222.318.313.238.143.52.198.795.156.084-.009.166-.035.239-.078l5.566 19.303-6.759 3.829c-.431.216-.77.576-.954 1.016-.16.425-.187.888-.08 1.329l7.474 27.743c-1.77 1.27-3.214 2.929-4.214 4.845a20.61 20.61 0 0 0-2.226 12.347 20.15 20.15 0 0 0 4.532 11.8c2.915 3.595 6.202 5.21 9.86 4.845a.62.62 0 0 1 .239-.078c.111-.001.22-.028.318-.078l7.474-.547c.111-.001.22-.028.318-.078 3.499-.417 6.335-2.553 8.508-6.408v-.156a17.58 17.58 0 0 0 1.67-4.22l17.97-1.719a17.28 17.28 0 0 0 2.147 3.204c2.703 3.178 5.672 4.637 8.905 4.376.098-.05.207-.077.318-.078.093-.063.206-.091.318-.078l6.52-.469.318-.156c3.26-.493 6.06-2.542 7.474-5.47.004-.06.033-.117.08-.156 1.843-3.429 2.618-7.316 2.226-11.175-.017-.168-.043-.351-.08-.547l9.939-5.47.318-.156.716-.469h.08l7.236-4.142a2.57 2.57 0 0 0 .954-1.016 1.65 1.65 0 0 0 .08-1.329 2.45 2.45 0 0 0-.875-1.094 2.16 2.16 0 0 0-1.272-.391l-6.361.313-13.12-42.2a2.38 2.38 0 0 0-.716-1.016 1.92 1.92 0 0 0-1.272-.469l-20.991-.625a.88.88 0 0 0-.08-.391l-6.043-19.146c.015-.013.015-.039 0-.078-2.038-5.677-5.457-9.454-10.257-11.331-.327-.191-.673-.348-1.034-.469-.013.01-.039.01-.08 0a.43.43 0 0 1-.08-.078L47.375.564h0a.91.91 0 0 0-.159-.078h-.08c-.021-.031-.048-.058-.08-.078h-.08c-1.719-.657-3.649-.514-5.248.391m24.331 31.806l.08-.469c-.368-3.5-1.421-6.896-3.101-10.003l-.557-.625a4.71 4.71 0 0 0-1.034-.313 8.37 8.37 0 0 1-3.34-.703 21.58 21.58 0 0 0-1.908-1.407l-1.749-1.329a2.93 2.93 0 0 1-.636-2.032c.057-.747.217-1.484.477-2.188l.557-1.25.239-.313c-.126-.159-.208-.348-.239-.547a2.62 2.62 0 0 1-.716.469 1.29 1.29 0 0 1-.557 0c.108.197.189.407.239.625v1.016l-.239 1.954a2.93 2.93 0 0 1-.318 1.172c-.27.682-.926 1.142-1.67 1.172-.842-.098-1.64-.422-2.306-.938a30.48 30.48 0 0 0-3.419-1.719l-1.272-.547-3.737-2.735a3.46 3.46 0 0 1-1.113-1.094 3.63 3.63 0 0 1-.318-1.641c-.031-.66.05-1.32.239-1.954.198-.649.752-1.133 1.431-1.25a.97.97 0 0 1 0-.547 3.08 3.08 0 0 1 .954-1.329 7.78 7.78 0 0 1 1.829-1.016 3.68 3.68 0 0 1 1.749.313l9.144 4.298c.335.142.634.356.875.625a1.51 1.51 0 0 1 .318 1.407v.078a1.97 1.97 0 0 1 .398-.156 7.57 7.57 0 0 1 5.168.86c2.908 1.627 5.218 4.116 6.6 7.111a45.48 45.48 0 0 1 3.101 9.221c1.325 4.949 2.359 8.466 3.101 10.55a3.03 3.03 0 0 1 .239 1.641c-.082.236-.218.45-.398.625a27.3 27.3 0 0 1 1.272.078l3.021.391c1.272.156 4.241.365 8.905.625l8.269.313c.659-.029 1.316.105 1.908.391a3.7 3.7 0 0 1 1.034 1.172 8.99 8.99 0 0 1 .875 2.188c.636 1.771 1.193 3.517 1.67 5.236l.716 3.204c.848 3.439 2.253 8.206 4.214 14.301l3.976 12.504c.263.677.423 1.388.477 2.11a1.85 1.85 0 0 1-1.034 1.876 2.37 2.37 0 0 1-1.272.156c-.583-.052-1.034-.104-1.352-.156-.937.002-1.87.107-2.783.313-3.632.525-7.302.761-10.973.703-6.149-.052-9.86-.052-11.132 0-2.565.072-5.118.36-7.633.86-1.107.244-2.261.19-3.34-.156a3.3 3.3 0 0 1-1.034-1.094 3.86 3.86 0 0 1 .159.547c.005.556-.161 1.101-.477 1.563-.535.493-1.154.89-1.829 1.172l-4.771 2.423c-1.328.636-2.559 1.452-3.658 2.423-.265.26-.663.625-1.193 1.094-.408.375-.953.572-1.511.547a1.97 1.97 0 0 1-1.59-.781 5.92 5.92 0 0 1-1.034-1.485c-.898-1.658-1.992-3.206-3.26-4.611-1.27-1.437-2.966-2.448-4.85-2.891a11.58 11.58 0 0 0-2.226-.234c-2.626-.155-5.26-.077-7.872.234-.842.231-1.738.176-2.544-.156-1.045-.706-1.738-1.813-1.908-3.048l-5.566-21.022c-.315-.746-.344-1.579-.08-2.344.32-.551.753-1.03 1.272-1.407l3.021-2.266c.728-.774 1.808-1.127 2.862-.938.583.208 1.087.912 1.511 2.11.043.126.07.258.08.391-.077-.481-.13-.924-.159-1.329-.115-.499-.059-1.021.159-1.485.359-.524.818-.975 1.352-1.329a58.56 58.56 0 0 1 8.349-4.611c.337-.191.726-.273 1.113-.234.245.069.465.205.636.391.002-.211.029-.421.08-.625.3-.616.805-1.112 1.431-1.407l1.431-.703.477-.391.318-.547c.528-1.026 1.44-1.81 2.544-2.188.969-.681 2.215-.856 3.34-.469.636.539 1.105 1.243 1.352 2.032.511 1.355 1.015 2.918 1.511 4.689.211.313.372.655.477 1.016.954 2.709 1.988 5.913 3.101 9.612l6.202 22.428a.43.43 0 0 1 0 .156l1.113 2.266a.84.84 0 0 1 .08.234l-4.85-18.912c-2.809-10.316-4.983-17.583-6.52-21.803-.4-.687-.514-1.499-.318-2.266.105-.416.398-.761.795-.938.36-.206.78-.289 1.193-.234l.954.313a8.91 8.91 0 0 0 1.352.078l8.11-.156h1.431c-.174-.141-.334-.298-.477-.469-.147-.144-.28-.301-.398-.469-.251.106-.522.16-.795.156l-2.544.078c-.784-.018-1.54-.293-2.147-.781a6.08 6.08 0 0 1-.875-1.719 6.96 6.96 0 0 1-.239-2.11c.104-.718.637-1.304 1.352-1.485.224.026.451-.029.636-.156m-28.704-2.97c-.759-1.476-1.371-3.02-1.829-4.611-.212-.781-.08-1.302.398-1.563l.716-.156.875-.391c.969-.348 1.99-.533 3.021-.547l11.847-.391a82.72 82.72 0 0 1 8.428.078 4.46 4.46 0 0 1 1.749.469c.702.479 1.186 1.208 1.352 2.032.371 1.042.848 2.579 1.431 4.611.36.676.418 1.469.159 2.188-.212.469-.822.755-1.829.86-4.665.677-11.927 1.537-21.787 2.579-.502.052-1.009.052-1.511 0-1.059-.256-1.887-1.069-2.147-2.11l-.875-3.048m-3.976-7.893c.502.946.901 1.942 1.193 2.97l5.009 15.708a27.54 27.54 0 0 1 1.113 4.611 10.56 10.56 0 0 1 .318 2.11c.114.335.085.702-.08 1.016-.105.528-.566.916-1.113.938a1.31 1.31 0 0 1-1.352-.547 1.75 1.75 0 0 1-.239-.313c-.004.109-.031.215-.08.313-.26.413-.614.76-1.034 1.016l-1.59 1.094c-.471.347-1.014.587-1.59.703a1.99 1.99 0 0 1-1.829-1.172c-.428-.627-.675-1.356-.716-2.11l-3.26-15.083-3.181-6.017a9.84 9.84 0 0 0-3.26-3.517c-.489-.151-.967-.334-1.431-.547a2.14 2.14 0 0 1-1.193-.86c-.329-.654-.467-1.384-.398-2.11l.318-2.11c.133-.697.61-1.283 1.272-1.563v-.078c-.06-.176-.087-.361-.08-.547-.001-.414.171-.81.477-1.094a4.1 4.1 0 0 1 2.226-.703 4.77 4.77 0 0 1 1.749 0 3.35 3.35 0 0 1 1.511.625 18.46 18.46 0 0 1 6.52 5.939l.716 1.329m23.695 15.473c-.524-.054-1.045.117-1.431.469l-12.484 7.033-2.465-8.284 19.64-2.11c.006.078.006.156 0 .234l.875 2.735-4.135-.078M18.274 15.49a.72.72 0 0 1-.318 0 4.28 4.28 0 0 1 .477.469c.296.284.417.7.318 1.094l-.318.938a9.54 9.54 0 0 0-.318 2.344c-.212.99-.663 1.563-1.352 1.719a2.8 2.8 0 0 1-1.59-.234L5.87 17.209c-.724-.38-1.392-.853-1.988-1.407-.605-.569-1.02-1.305-1.193-2.11a5.52 5.52 0 0 1 .159-2.188 2.41 2.41 0 0 1 .557-1.329c.382-.355.932-.476 1.431-.313a3.93 3.93 0 0 1 .398.078c-.057-.15-.084-.309-.08-.469a1.86 1.86 0 0 1 1.272-1.876c.79-.277 1.626-.41 2.465-.391a10.38 10.38 0 0 1 1.511.078l1.59.547 7.315 3.439c.387.167.738.406 1.034.703.242.372.353.811.318 1.25-.237.381-.532.724-.875 1.016l-.398.547a1.55 1.55 0 0 1-1.113.703m35.463 78.07l.795 2.735c.727 2.806.995 5.708.795 8.596a7.18 7.18 0 0 1-.477 2.11 15.78 15.78 0 0 1-1.829 4.845 7.91 7.91 0 0 1-3.817 3.517l-3.34.938c-.567.191-1.154.322-1.749.391a1.74 1.74 0 0 1-1.59-.469c-.519-.479-.706-1.213-.477-1.876.027-.135.054-.291.08-.469-1.572 1.753-3.922 2.63-6.282 2.344a5.77 5.77 0 0 1-2.306-.781l-1.511-1.094a13.19 13.19 0 0 1-2.624-3.204 23.24 23.24 0 0 1-3.101-12.582c-.018-.681.036-1.362.159-2.032l.557-1.954a23.14 23.14 0 0 1 2.067-4.767c.582-.945 1.404-1.726 2.385-2.266a12.29 12.29 0 0 1 2.306-.703 7.55 7.55 0 0 1 3.34-.156 7.19 7.19 0 0 1 1.988.86h0c.007-.078.007-.156 0-.234-.079-.602.126-1.206.557-1.641.613-.46 1.377-.682 2.147-.625a11.11 11.11 0 0 1 7.395 2.266c2.098 1.605 3.674 3.778 4.532 6.252m3.896 1.563a34.67 34.67 0 0 1 5.566-3.126l7.872-3.829a14.23 14.23 0 0 1 2.385-1.016 22.11 22.11 0 0 1 5.407-.938l21.389-.703 1.511.234a6.11 6.11 0 0 0 1.988-.234l7.474-.391c.795.104 1.246.26 1.352.469a.92.92 0 0 1-.239 1.25 5.46 5.46 0 0 1-1.272.703c-.882.595-1.813 1.118-2.783 1.563-.842.323-1.725.533-2.624.625.031.021.058.048.08.078.371.417.318.86-.159 1.329-.366.342-.799.608-1.272.781-4.188 1.771-10.257 4.845-18.208 9.221-.865.488-1.769.907-2.703 1.25-1.278.294-2.584.451-3.896.469-2.862.104-6.467.443-10.814 1.016l-10.734 1.407c-.652.166-1.346.052-1.908-.313-.423-.5-.571-1.17-.398-1.797a7.35 7.35 0 0 1 .239-2.188c.05-.379.216-.733.477-1.016a2.31 2.31 0 0 1-.557-1.25c-.053-.467-.053-.939 0-1.407.352-.905.994-1.673 1.829-2.188m41.903.234c.788.136 1.465.628 1.829 1.329a3.47 3.47 0 0 1 .398 2.188 12.4 12.4 0 0 1-1.113 4.142 13.46 13.46 0 0 1-4.055 5.939c-1.189.778-2.471 1.408-3.817 1.876a6.23 6.23 0 0 1-1.988.469c-.695.149-1.407-.169-1.749-.781a1.68 1.68 0 0 1-.318-1.016 4.5 4.5 0 0 1-2.067 1.329l-1.749.234a12.01 12.01 0 0 1-2.306-.156 7.08 7.08 0 0 1-2.385-1.329 16.44 16.44 0 0 1-1.749-2.11 3.03 3.03 0 0 1-.716-1.094 1.5 1.5 0 0 1-.08-1.25c.254-.504.718-.875 1.272-1.016l4.214-.156a11.32 11.32 0 0 0 3.419-.781c.396-.152.75-.393 1.034-.703.205-.469.502-.894.875-1.25.331-.184.677-.341 1.034-.469a3.14 3.14 0 0 1 1.988 0c.231.094.426.259.557.469.071-.481.263-.937.557-1.329l1.113-1.172 3.499-2.423c.666-.515 1.464-.84 2.306-.938M36.164 61.519c.13.571.236 1.092.318 1.563l.636 2.579a5.47 5.47 0 0 0 1.272 2.266c.309-.304.627-.642.954-1.016-.469.218-1.022.157-1.431-.156-.461-.411-.769-.961-.875-1.563a99.29 99.29 0 0 0-.875-3.673z"/><path d="M78.942 104.11c-.554.141-1.018.512-1.272 1.016a1.5 1.5 0 0 0 .08 1.25 3.03 3.03 0 0 0 .716 1.094 16.44 16.44 0 0 0 1.749 2.11 7.08 7.08 0 0 0 2.385 1.329 12.01 12.01 0 0 0 2.306.156l1.749-.234a4.5 4.5 0 0 0 2.067-1.329 2.29 2.29 0 0 0 .239-.234 16.9 16.9 0 0 0 1.431-2.423l.477-.938a6.94 6.94 0 0 0 .875-1.954l.477-1.797c.071-.321.014-.657-.159-.938-.13-.21-.325-.375-.557-.469a3.14 3.14 0 0 0-1.988 0c-.357.128-.703.285-1.034.469-.373.356-.67.781-.875 1.25-.284.311-.638.552-1.034.703a11.32 11.32 0 0 1-3.419.781l-4.214.156M37.118 86.683a7.55 7.55 0 0 0-3.34.156 12.29 12.29 0 0 0-2.306.703c-.981.54-1.803 1.321-2.385 2.266a23.14 23.14 0 0 0-2.067 4.767l-.557 1.954c-.123.67-.177 1.351-.159 2.032a23.24 23.24 0 0 0 3.101 12.582c.698 1.197 1.584 2.278 2.624 3.204l1.511 1.094a5.77 5.77 0 0 0 2.306.781c2.359.285 4.71-.592 6.282-2.344a1.17 1.17 0 0 0 .318-.234c1.313-1.369 2.125-3.129 2.306-5.001a6.03 6.03 0 0 0 0-.547v-.078a10.01 10.01 0 0 0 .557-2.032l.239-2.188a34.95 34.95 0 0 0-.08-3.907 24.52 24.52 0 0 0-.398-3.048h0c.033-.372-.021-.746-.159-1.094-.731-3.392-2.824-6.351-5.804-8.206h0a7.19 7.19 0 0 0-1.988-.86z" fill="#757171"/><path d="M101.365 96.686c-.363-.701-1.041-1.193-1.829-1.329-.842.098-1.64.422-2.306.938l-3.499 2.423-1.113 1.172c-.294.391-.485.847-.557 1.329.173.281.23.617.159.938l-.477 1.797a6.94 6.94 0 0 1-.875 1.954l-.477.938a16.9 16.9 0 0 1-1.431 2.423 2.29 2.29 0 0 1-.239.234 1.68 1.68 0 0 0 .318 1.016c.342.613 1.054.931 1.749.781a6.23 6.23 0 0 0 1.988-.469c1.346-.468 2.628-1.098 3.817-1.876a13.46 13.46 0 0 0 4.055-5.939 12.4 12.4 0 0 0 1.113-4.142 3.47 3.47 0 0 0-.398-2.188m-46.833-.391l-.795-2.735c-.858-2.474-2.434-4.647-4.532-6.252a11.11 11.11 0 0 0-7.395-2.266c-.769-.057-1.533.165-2.147.625-.431.435-.636 1.039-.557 1.641.007.078.007.156 0 .234 2.981 1.855 5.073 4.814 5.804 8.206.138.348.192.722.159 1.094h0a24.52 24.52 0 0 1 .398 3.048 34.95 34.95 0 0 1 .08 3.907l-.239 2.188a10.01 10.01 0 0 1-.557 2.032v.078c.008.186.008.369 0 .547-.181 1.873-.993 3.633-2.306 5.001a1.17 1.17 0 0 1-.318.234 8.45 8.45 0 0 1-.08.469c-.229.663-.042 1.396.477 1.876a1.74 1.74 0 0 0 1.59.469c.596-.069 1.182-.2 1.749-.391l3.34-.938a7.91 7.91 0 0 0 3.817-3.517 15.78 15.78 0 0 0 1.829-4.845 7.18 7.18 0 0 0 .477-2.11c.2-2.889-.068-5.79-.795-8.596z" fill="#999"/><path d="M58.905 99.812l-.318.156c-.243-.231-.545-.393-.875-.469-.4-.059-.806.055-1.113.313-.083.047-.163.099-.239.156-.261.283-.427.637-.477 1.016a7.35 7.35 0 0 0-.239 2.188c-.174.627-.025 1.298.398 1.797.562.365 1.256.478 1.908.313.53-.052 4.108-.521 10.734-1.407 4.347-.573 7.951-.912 10.814-1.016 1.312-.017 2.618-.175 3.896-.469.934-.344 1.838-.762 2.703-1.25 7.951-4.376 14.021-7.45 18.208-9.221.474-.173.906-.439 1.272-.781.477-.469.53-.912.159-1.329-.022-.03-.049-.057-.08-.078-.421-.34-.985-.457-1.511-.313l-2.385.469-.398.156-9.78.703a127.07 127.07 0 0 0-13.438 1.485 17.21 17.21 0 0 0-3.578.781l-15.664 6.799m-38.246-83.15a1.18 1.18 0 0 1-.398-.469v.078c-.663.28-1.14.866-1.272 1.563-.053.26-.159.964-.318 2.11-.069.726.069 1.456.398 2.11a2.14 2.14 0 0 0 1.193.86c.464.213.942.396 1.431.547a9.84 9.84 0 0 1 3.26 3.517l3.181 6.017 3.26 15.083c.041.754.288 1.483.716 2.11a1.99 1.99 0 0 0 1.829 1.172c.576-.116 1.119-.357 1.59-.703l1.59-1.094c.42-.255.774-.603 1.034-1.016.048-.098.076-.204.08-.313-.113-.33-.193-.67-.239-1.016-.265-1.355-.822-3.386-1.67-6.096L31.95 26.821a16.32 16.32 0 0 0-1.67-4.298c-1.165-2.138-2.932-3.902-5.089-5.08a4.13 4.13 0 0 0-2.465-.781l-1.113.156a1.32 1.32 0 0 1-.954-.156m47.549 9.612c-.424-1.623-.848-3.055-1.272-4.298l-.875-1.954a25.12 25.12 0 0 0-1.59-3.282c-1.064-1.338-2.389-2.453-3.896-3.282-.676-.456-1.395-.849-2.147-1.172l-.716.234a2.38 2.38 0 0 1-1.988-.078c-.237-.12-.452-.279-.636-.469l-.239.313-.557 1.25c-.26.705-.42 1.441-.477 2.188a2.93 2.93 0 0 0 .636 2.032c.053.052.636.495 1.749 1.329a21.58 21.58 0 0 1 1.908 1.407 8.37 8.37 0 0 0 3.34.703 4.71 4.71 0 0 1 1.034.313l.557.625c1.68 3.107 2.733 6.503 3.101 10.003l-.08.469c-.185.127-.412.183-.636.156-.714.181-1.248.767-1.352 1.485a6.96 6.96 0 0 0 .239 2.11 6.08 6.08 0 0 0 .875 1.719c.607.489 1.363.764 2.147.781l2.544-.078c.273.003.544-.05.795-.156-.374-.462-.519-1.063-.398-1.641l.318-1.016c.026-.474-.027-.95-.159-1.407l-2.226-8.284z" fill="#9cb2da"/><path d="M63.199 91.997a34.67 34.67 0 0 0-5.566 3.126c-.835.515-1.477 1.283-1.829 2.188-.053.467-.053.939 0 1.407a2.31 2.31 0 0 0 .557 1.25c.076-.057.156-.109.239-.156.308-.258.714-.372 1.113-.313.329.076.631.238.875.469l.318-.156 15.664-6.799a17.21 17.21 0 0 1 3.578-.781 127.07 127.07 0 0 1 13.438-1.485l9.78-.703.398-.156 2.385-.469c.525-.145 1.089-.028 1.511.313.899-.092 1.782-.303 2.624-.625.97-.445 1.901-.968 2.783-1.563a5.46 5.46 0 0 0 1.272-.703.92.92 0 0 0 .239-1.25c-.106-.208-.557-.365-1.352-.469l-7.474.391a6.11 6.11 0 0 1-1.988.234l-1.511-.234-21.389.703a22.11 22.11 0 0 0-5.407.938 14.23 14.23 0 0 0-2.385 1.016l-7.872 3.829M34.574 24.711c-.291-1.028-.691-2.023-1.193-2.97l-.716-1.329a18.46 18.46 0 0 0-6.52-5.939 3.35 3.35 0 0 0-1.511-.625 4.77 4.77 0 0 0-1.749 0 4.1 4.1 0 0 0-2.226.703c-.306.284-.478.68-.477 1.094-.008.186.019.371.08.547a1.18 1.18 0 0 0 .398.469 1.32 1.32 0 0 0 .954.156l1.113-.156a4.13 4.13 0 0 1 2.465.781c2.157 1.178 3.924 2.941 5.089 5.08a16.32 16.32 0 0 1 1.67 4.298l4.373 14.301 1.67 6.096c.046.345.126.686.239 1.016a1.75 1.75 0 0 0 .239.313 1.31 1.31 0 0 0 1.352.547c.547-.022 1.008-.41 1.113-.938.165-.314.193-.681.08-1.016a10.56 10.56 0 0 0-.318-2.11 27.54 27.54 0 0 0-1.113-4.611l-5.009-15.708m.954.313c.458 1.591 1.07 3.135 1.829 4.611l.875 3.048c.26 1.041 1.087 1.854 2.147 2.11.502.052 1.009.052 1.511 0l21.787-2.579c1.007-.104 1.617-.391 1.829-.86.259-.719.201-1.512-.159-2.188l-1.431-4.611c-.165-.824-.65-1.553-1.352-2.032a4.46 4.46 0 0 0-1.749-.469 82.72 82.72 0 0 0-8.428-.078l-11.847.391c-1.031.014-2.053.199-3.021.547l-.875.391-.716.156c-.477.26-.61.781-.398 1.563m31.408-3.048l1.272 4.298 2.226 8.284c.132.457.185.932.159 1.407l-.318 1.016c-.122.578.024 1.179.398 1.641.117.168.25.325.398.469.143.171.303.328.477.469a66.88 66.88 0 0 1 2.624.078c.18-.176.316-.39.398-.625a3.03 3.03 0 0 0-.239-1.641c-.742-2.084-1.776-5.601-3.101-10.55a45.48 45.48 0 0 0-3.101-9.221c-1.382-2.995-3.692-5.484-6.6-7.111a7.57 7.57 0 0 0-5.168-.86 1.97 1.97 0 0 0-.398.156 5.1 5.1 0 0 1-.716 1.329c-.119.12-.253.225-.398.313.03.199.113.388.239.547.184.19.399.348.636.469a2.38 2.38 0 0 0 1.988.078l.716-.234c.752.323 1.47.716 2.147 1.172 1.508.829 2.832 1.945 3.896 3.282a25.12 25.12 0 0 1 1.59 3.282l.875 1.954z" fill="#c3d4f6"/><path d="M17.956 15.49c-.202-.102-.416-.181-.636-.234-.053-.007-.106-.007-.159 0l-.08-.078c-.088-.125-.168-.256-.239-.391L9.925 12.13l-2.306-1.016-1.113-.625h0a.4.4 0 0 1-.159 0 .74.74 0 0 1-.159-.078 6.1 6.1 0 0 0-.954-.469 3.93 3.93 0 0 0-.398-.078c-.499-.163-1.049-.043-1.431.313a2.41 2.41 0 0 0-.557 1.329 5.52 5.52 0 0 0-.159 2.188c.172.805.588 1.541 1.193 2.11.596.554 1.264 1.027 1.988 1.407l9.303 4.611a2.8 2.8 0 0 0 1.59.234c.689-.156 1.14-.729 1.352-1.719a9.54 9.54 0 0 1 .318-2.344l.318-.938c.099-.394-.022-.81-.318-1.094a4.28 4.28 0 0 0-.477-.469m35.86-2.97c-.05-.218-.13-.429-.239-.625a1.45 1.45 0 0 0-1.431-.781h-.08c-.093-.176-.173-.359-.239-.547l-5.884-2.344c-.715-.254-1.407-.568-2.067-.938l-1.034-.547h0a.36.36 0 0 1-.08-.078c-.433-.406-.994-.654-1.59-.703h-.08c-.679.117-1.233.601-1.431 1.25-.189.634-.269 1.294-.239 1.954a3.63 3.63 0 0 0 .318 1.641 3.46 3.46 0 0 0 1.113 1.094l3.737 2.735 1.272.547a30.48 30.48 0 0 1 3.419 1.719c.666.515 1.464.84 2.306.938.744-.03 1.399-.49 1.67-1.172a2.93 2.93 0 0 0 .318-1.172l.239-1.954V12.52z" fill="#992300"/><path d="M17.956 15.49a.72.72 0 0 0 .318 0 1.55 1.55 0 0 0 1.113-.703l.398-.547c.343-.292.638-.635.875-1.016.035-.44-.076-.879-.318-1.25-.296-.297-.646-.536-1.034-.703l-7.315-3.439-1.59-.547a10.38 10.38 0 0 0-1.511-.078c-.839-.019-1.674.113-2.465.391a1.86 1.86 0 0 0-1.272 1.876c-.004.16.023.319.08.469a6.1 6.1 0 0 1 .954.469.74.74 0 0 0 .159.078.4.4 0 0 0 .159 0h0l1.113.625 2.306 1.016 6.918 2.657c.071.135.151.266.239.391l.08.078c.053-.007.106-.007.159 0 .221.054.434.132.636.234m38.007-5.705v-.078a1.51 1.51 0 0 0-.318-1.407c-.241-.269-.54-.483-.875-.625l-9.144-4.298a3.68 3.68 0 0 0-1.749-.313 7.78 7.78 0 0 0-1.829 1.016 3.08 3.08 0 0 0-.954 1.329.97.97 0 0 0 0 .547h.08c.596.049 1.157.298 1.59.703a.36.36 0 0 0 .08.078h0l1.034.547c.661.37 1.352.684 2.067.938l5.884 2.344c.066.188.146.371.239.547h.08a1.45 1.45 0 0 1 1.431.781 1.29 1.29 0 0 0 .557 0 2.62 2.62 0 0 0 .716-.469c.145-.088.278-.193.398-.313a5.1 5.1 0 0 0 .716-1.329z" fill="#cc3305"/><path d="M45.944 47.374c-.171-.186-.391-.321-.636-.391-.387-.039-.776.043-1.113.234a58.56 58.56 0 0 0-8.349 4.611c-.533.353-.992.804-1.352 1.329-.218.464-.274.986-.159 1.485l.159 1.329 1.272 4.22.159.391c.012.078.012.157 0 .234.037.046.064.099.08.156l.159.547.875 3.673c.106.602.414 1.152.875 1.563.409.313.962.374 1.431.156.877-.971 1.7-1.989 2.465-3.048a11.59 11.59 0 0 1 1.272-1.329c.879-.362 1.844-.47 2.783-.313l4.691.547c-1.484-5.627-2.915-10.42-4.294-14.379a7.04 7.04 0 0 1-.318-1.016z" fill="#b49b85"/><path d="M32.904 53.47c-1.055-.19-2.135.164-2.862.938l-3.021 2.266c-.519.377-.952.856-1.272 1.407-.264.765-.236 1.598.08 2.344l5.566 21.022c.17 1.235.863 2.342 1.908 3.048.806.332 1.703.387 2.544.156 2.611-.311 5.246-.39 7.872-.234a11.58 11.58 0 0 1 2.226.234c1.884.443 3.58 1.454 4.85 2.891 1.268 1.405 2.362 2.953 3.26 4.611a5.92 5.92 0 0 0 1.034 1.485 1.97 1.97 0 0 0 1.59.781c.558.025 1.103-.172 1.511-.547l1.193-1.094c1.099-.971 2.33-1.786 3.658-2.423l4.771-2.423c.675-.282 1.294-.679 1.829-1.172.316-.462.482-1.007.477-1.563a3.86 3.86 0 0 0-.159-.547 14.9 14.9 0 0 0-.557-1.172.84.84 0 0 0-.08-.234l-1.113-2.266a.43.43 0 0 0 0-.156l-6.202-22.428c-1.113-3.699-2.147-6.903-3.101-9.612-.105-.361-.266-.703-.477-1.016-.496-1.771-.999-3.334-1.511-4.689-.247-.789-.715-1.493-1.352-2.032-1.125-.387-2.37-.212-3.34.469-1.104.378-2.017 1.162-2.544 2.188l-.318.547-.477.391-1.431.703c-.627.294-1.132.791-1.431 1.407-.051.205-.078.414-.08.625a7.04 7.04 0 0 0 .318 1.016c1.378 3.959 2.809 8.753 4.294 14.379l-4.691-.547c-.939-.158-1.904-.049-2.783.313a11.59 11.59 0 0 0-1.272 1.329c-.765 1.059-1.588 2.077-2.465 3.048-.327.374-.645.712-.954 1.016a5.47 5.47 0 0 1-1.272-2.266c-.053-.156-.265-1.016-.636-2.579a31.91 31.91 0 0 0-.318-1.563l-.159-.547c-.016-.057-.043-.11-.08-.156.012-.078.012-.157 0-.234l-.159-.391c-.296-1.23-.72-2.636-1.272-4.22-.01-.133-.037-.264-.08-.391-.424-1.198-.928-1.902-1.511-2.11z" fill="#805632"/><path d="M71.547 39.56h-1.431l-8.11.156a8.91 8.91 0 0 1-1.352-.078l-.954-.313c-.413-.054-.833.028-1.193.234-.397.176-.69.522-.795.938-.196.767-.082 1.58.318 2.266 1.537 4.22 3.711 11.488 6.52 21.803l4.85 18.912c.264.513.45.904.557 1.172a3.3 3.3 0 0 0 1.034 1.094c1.079.346 2.232.4 3.34.156 2.515-.5 5.069-.788 7.633-.86 1.272-.052 4.983-.052 11.132 0 3.671.057 7.341-.178 10.973-.703.913-.206 1.846-.311 2.783-.313a19.85 19.85 0 0 0 1.352.156 2.37 2.37 0 0 0 1.272-.156 1.85 1.85 0 0 0 1.034-1.876c-.054-.722-.214-1.433-.477-2.11l-3.976-12.504c-1.961-6.096-3.366-10.863-4.214-14.301l-.716-3.204c-.477-1.719-1.034-3.465-1.67-5.236a8.99 8.99 0 0 0-.875-2.188 3.7 3.7 0 0 0-1.034-1.172c-.593-.286-1.249-.42-1.908-.391l-8.269-.313-8.905-.625-3.021-.391a27.3 27.3 0 0 0-1.272-.078c-.725-.039-1.6-.065-2.624-.078z" fill="#b07d50"/><path d="M41.73.798c-.137.039-.271.091-.398.156-1.722.928-3.09 2.382-3.896 4.142.013.053.013.079 0 .078a9.16 9.16 0 0 0-.557 5.47v.078a.75.75 0 0 0 .08.313 6.76 6.76 0 0 0 2.067 3.204l-.08-.078c.238.239.505.449.795.625a.9.9 0 0 0 .398.313 1.39 1.39 0 0 0 .795.234l13.04 5.705a.7.7 0 0 0 .239.156c1.89 1.218 3.251 3.085 3.817 5.236l10.019 34.463h.08a4.33 4.33 0 0 0 .477 1.094c.103.203.271.368.477.469a6.59 6.59 0 0 0 .954.391c.055.014.081.014.08 0 .471.141.979.114 1.431-.078h0l9.144-2.735c.053.013.08.013.08 0a3.19 3.19 0 0 0 1.59-1.25c.098-.108.154-.246.159-.391a3.4 3.4 0 0 0 .159-1.563c-.02-.055-.046-.108-.08-.156-1.511-5.978-3.127-11.944-4.85-17.896-2.041-6.89-4.188-13.741-6.441-20.553.015-.013.015-.039 0-.078-2.038-5.677-5.457-9.454-10.257-11.331-.327-.191-.673-.348-1.034-.469-.013.01-.039.01-.08 0a.43.43 0 0 1-.08-.078L47.375.564h0a.91.91 0 0 0-.159-.078h-.08c-.021-.031-.048-.058-.08-.078h-.08c-1.719-.657-3.649-.514-5.248.391m36.178 55.407l-2.624.86-3.419 1.016-9.621-32.978v-.156c-1.484-4.168-3.605-6.721-6.361-7.659h.08l-.636-.234c-.213-.367-.374-.762-.477-1.172v.078a3.94 3.94 0 0 1-.159-1.563c.106-.52.294-1.021.557-1.485a1.53 1.53 0 0 1 .239-.625c.43-.686 1.032-1.251 1.749-1.641a2.5 2.5 0 0 1 .875-.313c.087-.007.173.022.239.078s.152.085.239.078a2.78 2.78 0 0 1 .716.469h.08c3.772 1.58 6.629 4.732 7.792 8.596a756.77 756.77 0 0 1 6.361 20.475l4.373 16.177M53.18 11.114c-.047.039-.075.096-.08.156-.062.126-.115.257-.159.391l-.159.313a7.64 7.64 0 0 0-.398 1.172c-.255.781-.337 1.608-.239 2.423l-9.303-4.064a.23.23 0 0 0-.159-.078c-.105-.104-.249-.16-.398-.156l-.318-.313a1.8 1.8 0 0 1-.716-1.172c-.102-.383-.155-.777-.159-1.172a4.36 4.36 0 0 1 .557-1.719l-.08.078c.076-.261.212-.502.398-.703.319-.629.854-1.127 1.511-1.407h-.08c.629-.348 1.374-.433 2.067-.234l-.159-.078c.371.104 3.605 1.589 9.701 4.454a7.29 7.29 0 0 0-1.829 2.11z"/><path d="M53.18 11.114a7.29 7.29 0 0 1 1.829-2.11l-9.701-4.454.159.078c-.693-.199-1.438-.114-2.067.234h.08c-.657.279-1.192.777-1.511 1.407l1.908 1.016c.661.37 1.352.684 2.067.938l7.236 2.891z" fill="#cc3305"/><path d="M53.1 11.27c.004-.06.033-.117.08-.156l-7.236-2.891c-.715-.254-1.407-.568-2.067-.938l-1.908-1.016c-.185.202-.321.442-.398.703l.08-.078a4.36 4.36 0 0 0-.557 1.719c.004.396.058.789.159 1.172a1.8 1.8 0 0 0 .716 1.172l.318.313c.149-.004.293.053.398.156a.23.23 0 0 1 .159.078l9.303 4.064c-.098-.815-.017-1.641.239-2.423a7.64 7.64 0 0 1 .398-1.172l.159-.313c.044-.134.097-.264.159-.391z" fill="#992300"/><path d="M69.48 34.558l-3.34-11.331c-.693-2.221-1.769-4.31-3.181-6.174-1.225-1.418-2.743-2.563-4.453-3.36l-3.021-1.407a1.53 1.53 0 0 0-.239.625c-.263.463-.451.964-.557 1.485a3.94 3.94 0 0 0 .159 1.563v-.078c.103.41.264.805.477 1.172l.636.234h-.08c2.756.938 4.877 3.491 6.361 7.659v.156l9.621 32.978 3.419-1.016-5.804-22.507z" fill="#9cb2da"/><path d="M66.141 23.227l3.34 11.331 5.804 22.507 2.624-.86-4.373-16.177-6.361-20.475c-1.163-3.864-4.02-7.017-7.792-8.596h-.08a2.78 2.78 0 0 0-.716-.469c-.087.007-.173-.022-.239-.078s-.152-.085-.239-.078a2.5 2.5 0 0 0-.875.313c-.717.39-1.319.956-1.749 1.641l3.021 1.407c1.71.797 3.228 1.943 4.453 3.36 1.411 1.864 2.487 3.952 3.181 6.174z" fill="#c3d4f6"/><path d="M68.764 32.214c.106-.31.078-.649-.08-.938l-3.817-10.003a1.88 1.88 0 0 0-.557-.781c-.283-.242-.671-.33-1.034-.234l-34.509.781a1.19 1.19 0 0 0-1.034.313c-.312.2-.538.506-.636.86a1.92 1.92 0 0 0 0 1.094l4.532 12.66a2.24 2.24 0 0 0 .795.938c.297.219.663.329 1.034.313l33.872-3.595a1.89 1.89 0 0 0 .875-.391 1.78 1.78 0 0 0 .557-1.016m-4.135-1.876l-30.135 3.204-3.26-9.143 30.771-.781 2.624 6.721z"/><path d="M34.494 33.542l30.135-3.204-2.624-6.721-30.771.781 3.26 9.143z" fill="#c3d4f6"/><path d="M37.675 23.305c-.013-.107-.04-.212-.08-.313-2.193-6.2-5.931-10.316-11.211-12.347l-1.113-.469h0L11.515 4.002a.76.76 0 0 0-.159-.156c-1.94-.861-4.178-.774-6.043.234-.287.07-.54.236-.716.469-1.65 1.027-2.973 2.489-3.817 4.22.013.053.013.079 0 .078a9.37 9.37 0 0 0-.557 5.783v.313c.361 1.389 1.137 2.641 2.226 3.595l-.08-.078c.295.287.614.548.954.781l.08.078a1.25 1.25 0 0 0 .716.391h.159c.038.048.097.077.159.078l14.233 6.252a1.08 1.08 0 0 0 .398.313c1.781.733 3.186 2.583 4.214 5.549.037.112.09.217.159.313L34.256 69.49a2.08 2.08 0 0 0 .716 1.407 1.67 1.67 0 0 0 .398.313c.267.094.533.198.795.313.054.04.08.066.08.078a2.09 2.09 0 0 0 1.59 0l10.098-3.048h0c.779-.214 1.42-.759 1.749-1.485h0a2.79 2.79 0 0 0 .239-2.11 597.83 597.83 0 0 0-5.327-19.381c-2.137-7.542-4.443-14.966-6.918-22.272m-13.04-8.362l.08.156c4.118 1.717 7.199 5.207 8.349 9.456 2.491 7.398 4.824 14.822 6.997 22.272a579.31 579.31 0 0 1 4.85 17.74l-2.942.938-3.658 1.094-10.416-36.026c-.043-.072-.07-.152-.08-.234-1.749-4.585-4.029-7.398-6.838-8.44l-.716-.156a3.41 3.41 0 0 1-.557-1.172c-.157-.587-.185-1.2-.08-1.797a4.42 4.42 0 0 1 .477-1.563v.078c.106-.208.212-.443.318-.703.437-.794 1.1-1.446 1.908-1.876.318-.104.61-.208.875-.313a.46.46 0 0 1 .318.156.62.62 0 0 0 .239.078 16.1 16.1 0 0 1 .875.313m-4.771-2.032a8.48 8.48 0 0 0-1.908 2.344c-.047.039-.075.096-.08.156a2.57 2.57 0 0 0-.318.391l-.159.313v.078a9.77 9.77 0 0 0-.398 1.329 6.64 6.64 0 0 0-.239 2.657L6.585 15.724l-.159-.156c-.139-.098-.306-.152-.477-.156-.033-.132-.119-.244-.239-.313-.449-.321-.76-.795-.875-1.329a9.91 9.91 0 0 1-.08-1.25 5.32 5.32 0 0 1 .477-1.797 2.43 2.43 0 0 1 .318-.781A4.57 4.57 0 0 1 7.381 8.3l-.08.078c.671-.409 1.503-.467 2.226-.156h-.08c.742.208 4.214 1.771 10.416 4.689z"/><path d="M17.876 15.412c.004-.06.033-.117.08-.156L9.925 12.13l-2.306-1.016-2.067-1.172a2.43 2.43 0 0 0-.318.781 5.32 5.32 0 0 0-.477 1.797 9.91 9.91 0 0 0 .08 1.25c.114.534.426 1.007.875 1.329.119.068.205.181.239.313.171.004.338.058.477.156l.159.156 10.178 4.454a6.64 6.64 0 0 1 .239-2.657 9.77 9.77 0 0 1 .398-1.329v-.078l.159-.313a2.57 2.57 0 0 1 .318-.391z" fill="#992300"/><path d="M17.956 15.255a8.48 8.48 0 0 1 1.908-2.344c-6.202-2.918-9.674-4.48-10.416-4.689h.08c-.723-.311-1.556-.253-2.226.156l.08-.078a4.57 4.57 0 0 0-1.829 1.641c.583.313 1.272.703 2.067 1.172.53.26 1.299.599 2.306 1.016l8.031 3.126z" fill="#cc3305"/><path d="M20.421 16.584l-.318.703v-.078a4.42 4.42 0 0 0-.477 1.563c-.105.598-.078 1.211.08 1.797a3.41 3.41 0 0 0 .557 1.172l.716.156c2.809 1.042 5.089 3.855 6.838 8.44.01.083.037.163.08.234l10.416 36.026 3.658-1.094-6.202-24.538-3.817-12.426c-.689-2.46-1.849-4.767-3.419-6.799-1.322-1.528-2.945-2.777-4.771-3.673-.848-.417-1.961-.912-3.34-1.485z" fill="#9cb2da"/><path d="M24.714 15.099l-.08-.156-.875-.313a.62.62 0 0 1-.239-.078.46.46 0 0 0-.318-.156l-.875.313c-.808.429-1.471 1.081-1.908 1.876l3.34 1.485c1.826.896 3.449 2.145 4.771 3.673 1.57 2.032 2.73 4.339 3.419 6.799.53 1.563 1.802 5.705 3.817 12.426l6.202 24.538 2.942-.938a579.33 579.33 0 0 0-4.85-17.74 569.48 569.48 0 0 0-6.997-22.272c-1.149-4.249-4.231-7.739-8.349-9.456z" fill="#c3d4f6"/><path d="M98.502 85.745h.08a11.78 11.78 0 0 0-6.441-4.22h-.239a3.75 3.75 0 0 0-.716-.078 1.63 1.63 0 0 0-.875.078l-6.52.625a.9.9 0 0 0-.398-.078 4.42 4.42 0 0 0-3.021.469 1 1 0 0 0-.239.156l.159-.156c-2.524 1.006-4.55 2.941-5.645 5.392a18.49 18.49 0 0 0-1.988 11.097v.078a17.42 17.42 0 0 0 3.976 10.472c2.703 3.178 5.672 4.637 8.905 4.376.098-.05.207-.077.318-.078.093-.063.206-.091.318-.078l6.52-.469.318-.156c3.26-.493 6.06-2.542 7.474-5.47.004-.06.033-.117.08-.156 1.843-3.429 2.618-7.316 2.226-11.175-.29-3.891-1.789-7.601-4.294-10.628m-7.156-.781a8.83 8.83 0 0 1 4.453 2.97c1.961 2.421 3.151 5.357 3.419 8.44.386 3.051-.226 6.145-1.749 8.831-1.028 2.148-3.036 3.687-5.407 4.142l-1.749.078a8.73 8.73 0 0 0 1.431-2.579c.583-1.511.61-2.501.08-2.97l-.716 1.485c-.477.573-1.087 1.25-1.829 2.032-.531.871-1.303 1.576-2.226 2.032l-2.147.547a7.9 7.9 0 0 1-5.486-3.048c-1.881-2.445-2.988-5.38-3.181-8.44-.383-3.084.17-6.211 1.59-8.987 1.005-2.204 3.123-3.72 5.566-3.986h.08c.182-.052.375-.052.557 0a5.21 5.21 0 0 1 2.385.938c.856.518 1.588 1.211 2.147 2.032a44.59 44.59 0 0 1 2.942 4.298c.451.715.824 1.474 1.113 2.266a1.82 1.82 0 0 0 .318-.469 4.27 4.27 0 0 0 0-1.641c.007-.497-.131-.985-.398-1.407-.382-1.281-.916-2.514-1.59-3.673l-1.034-1.329c-.422-.52-.902-.992-1.431-1.407l2.067-.234a5.09 5.09 0 0 1 .795.078m-6.838 7.502a4.27 4.27 0 0 0-1.352-.078c-.71.33-1.356.78-1.908 1.329l-.477.469a4.92 4.92 0 0 0-.159.781l-.398 2.188v.625l.08.547a6.28 6.28 0 0 0 .875 2.97c.376.791 1.024 1.428 1.829 1.797.508.206 1.044.337 1.59.391h.716a1.4 1.4 0 0 0 .716-.391c.48-.421.837-.961 1.034-1.563.263-.675.291-1.417.08-2.11-.212-.261-.371-.443-.477-.547-.214-.146-.508-.093-.656.117a.46.46 0 0 0-.06.117c-.262.231-.455.528-.557.86-.198.473-.496.899-.875 1.25-.331-.007-.633-.185-.795-.469l-.636-.86a5.81 5.81 0 0 1-.636-2.11v-.625l-.159-.469v-.86a6.23 6.23 0 0 1 .239-1.094l.557-.625a1.52 1.52 0 0 1 1.272-.781 1.1 1.1 0 0 0 .557-.234.36.36 0 0 0 .239-.391 1.23 1.23 0 0 0-.636-.234z"/><path d="M86.416 86.448a5.21 5.21 0 0 0-2.385-.938c-.182-.052-.375-.052-.557 0h-.08c-2.443.265-4.56 1.781-5.566 3.986-1.42 2.776-1.973 5.903-1.59 8.987.193 3.059 1.299 5.995 3.181 8.44a7.9 7.9 0 0 0 5.486 3.048l2.147-.547c.923-.456 1.696-1.16 2.226-2.032l1.829-2.032.716-1.485.318-.469v-.078l.318-.86v-.234a13.71 13.71 0 0 0 .318-5.158c.007-.603-.046-1.205-.159-1.797-.047-.039-.075-.096-.08-.156-.005-.038.021-.073.06-.078-.269-.792-.642-1.552-1.093-2.266a44.59 44.59 0 0 0-2.942-4.298c-.559-.821-1.291-1.514-2.147-2.032m-3.26 5.939a4.27 4.27 0 0 1 1.352.078 1.23 1.23 0 0 1 .636.234.36.36 0 0 1-.239.391 1.1 1.1 0 0 1-.557.234 1.52 1.52 0 0 0-1.272.781l-.557.625a6.23 6.23 0 0 0-.239 1.094v.86l.159.469v.625a5.81 5.81 0 0 0 .636 2.11l.636.86c.162.284.464.462.795.469.379-.351.677-.777.875-1.25.102-.331.294-.629.557-.86.082-.243.349-.374.596-.293.042.014.082.034.119.059.106.104.265.287.477.547.212.693.184 1.435-.08 2.11-.197.602-.554 1.142-1.034 1.563a1.4 1.4 0 0 1-.716.391h-.716c-.547-.054-1.082-.185-1.59-.391-.805-.37-1.453-1.006-1.829-1.797a6.28 6.28 0 0 1-.875-2.97l-.08-.547v-.625l.398-2.188a4.92 4.92 0 0 1 .159-.781l.477-.469c.553-.549 1.198-.998 1.908-1.329h0z" fill="#757171"/><path d="M95.799 87.933a8.83 8.83 0 0 0-4.453-2.97 5.09 5.09 0 0 0-.795-.078l-2.067.234c.529.415 1.009.887 1.431 1.407l1.034 1.329c.674 1.159 1.208 2.392 1.59 3.673.267.422.405.91.398 1.407a4.27 4.27 0 0 1 0 1.641 1.82 1.82 0 0 1-.318.469.07.07 0 0 0-.08.059c.004.08.033.136.08.176.113.593.166 1.195.159 1.797a13.71 13.71 0 0 1-.318 5.158v.234l-.318.86v.078l-.318.469c.53.469.504 1.459-.08 2.97a8.73 8.73 0 0 1-1.431 2.579l1.749-.078c2.371-.455 4.379-1.993 5.407-4.142 1.523-2.686 2.136-5.779 1.749-8.831-.268-3.083-1.458-6.019-3.419-8.44z" fill="#999"/><path d="M73.774 40.732l-7.713-.156c-2.582-.033-5.162.15-7.713.547a42.93 42.93 0 0 0-13.12 5.314c-5.407 3.439-9.515 5.913-12.324 7.424-1.29.654-2.538 1.384-3.737 2.188a7.43 7.43 0 0 0-2.703 3.126c-.742 1.719-.689 4.246.159 7.58l2.306 11.097c.901 4.324 1.802 7.971 2.703 10.941l2.942 9.065c.419 1.572.95 3.113 1.59 4.611a7.17 7.17 0 0 0 2.942 3.439c1.394.71 2.976.982 4.532.781 1.62-.228 3.216-.594 4.771-1.094 5.693-1.747 11.609-2.694 17.572-2.813a21.99 21.99 0 0 0 3.817-.234c1.294-.232 2.424-1.001 3.101-2.11a4.34 4.34 0 0 0 4.612.234 30.25 30.25 0 0 0 4.135-2.423 39.75 39.75 0 0 1 5.963-2.423c4.351-1.568 8.533-3.558 12.484-5.939 1.094-.679 2.237-1.28 3.419-1.797.424-.156 1.14-.365 2.147-.625.703-.192 1.394-.427 2.067-.703 1.889-.762 3.159-2.529 3.26-4.533-.097-1.919-.641-3.791-1.59-5.47-2.068-4.273-3.744-8.719-5.009-13.285-1.325-5.887-2.438-10.289-3.34-13.207l-.716-2.579c.045-1.103-.062-2.207-.318-3.282-.66-2.16-2.509-3.765-4.771-4.142-2.176-.401-4.4-.48-6.6-.234-6.679.521-11.635.755-14.869.703M40.458 75.977l7.236-1.719c.919-.123 1.825-.333 2.703-.625 1.835-.654 3.268-2.091 3.896-3.907.212-.781.504-1.224.875-1.329l5.566 23.444a66.85 66.85 0 0 0-15.425 3.048l-4.85-18.912z" fill="#805632"/><path d="M99.695 38.856a1.92 1.92 0 0 0-1.272-.469l-41.347-1.172c-.524-.054-1.045.117-1.431.469L23.601 55.736c-.431.216-.77.576-.954 1.016-.16.425-.187.888-.08 1.329l13.358 49.624c.126.53.472.983.954 1.25a2.14 2.14 0 0 0 1.511.391l36.496-5.705a2.86 2.86 0 0 0 .795-.234l37.451-16.646c.447-.234.788-.624.954-1.094a1.82 1.82 0 0 0 .159-1.485l-13.835-44.31a2.38 2.38 0 0 0-.716-1.016M27.179 58.549l6.122-3.517 3.817 13.441c.011.304.195.577.477.703.311.191.667.299 1.034.313a1.22 1.22 0 0 0 .875-.547l4.612-5.08 7.236.938c.362.043.728-.04 1.034-.234a1.95 1.95 0 0 0 .557-.703c.109-.283.08-.6-.08-.86l-5.327-16.02 8.19-4.533L71.945 99.89l-32.282 5.08-12.484-46.42m8.746-4.923l9.223-5.158 4.453 13.207-5.884-.703a1.98 1.98 0 0 0-.716.156c-.175.079-.336.185-.477.313l-3.34 3.829-3.26-11.644m73.708 30.087L75.921 98.639 59.779 41.435l37.053 1.094 12.802 41.184z"/><path d="M75.921 98.639l33.713-14.926-12.802-41.184-37.053-1.094 16.141 57.204z" fill="#b07d50"/><path d="M45.149 48.468l-9.223 5.158 3.26 11.644 3.34-3.829c.142-.128.303-.233.477-.313a1.98 1.98 0 0 1 .716-.156l5.884.703-4.453-13.207z" fill="#b49b85"/><path d="M33.302 55.033l-6.122 3.517 12.484 46.42 32.282-5.08-16.221-57.439-8.19 4.533 5.327 16.02c.159.259.188.576.08.86a1.95 1.95 0 0 1-.557.703c-.306.194-.672.277-1.034.234l-7.236-.938-4.612 5.08a1.22 1.22 0 0 1-.875.547c-.366-.014-.723-.122-1.034-.313-.282-.127-.466-.399-.477-.703l-3.817-13.441z" fill="#805632"/><path d="M30.916 106.376a2.42 2.42 0 0 0-.954 1.094 1.65 1.65 0 0 0-.08 1.329 1.66 1.66 0 0 0 .875 1.172c.373.313.865.455 1.352.391l53.194-4.923a6.23 6.23 0 0 0 .795-.313l26.557-14.77.318-.156.716-.469h.08l7.236-4.142a2.57 2.57 0 0 0 .954-1.016 1.65 1.65 0 0 0 .08-1.329 2.45 2.45 0 0 0-.875-1.094 2.16 2.16 0 0 0-1.272-.391l-45.64 2.188a1.69 1.69 0 0 0-.875.234l-42.46 22.194M48.171 102l10.893-5.705v-.078l15.903-8.127 36.258-1.797-.239.156-.159.156-5.566 2.97-20.832 11.644-42.221 4.064L48.171 102z"/><path d="M48.171 102l-5.963 3.282 42.221-4.064 20.832-11.644-22.343 1.563-7.474.703-28.704 12.66 1.352-1.563.08-.938z" fill="#9cb2da"/><path d="M59.064 96.295L48.171 102l-.08.938-1.352 1.563 28.704-12.66 7.474-.703c3.552-.365 10.999-.886 22.343-1.563l5.566-2.97.159-.156.239-.156-36.258 1.797-15.903 8.127v.078z" fill="#c3d4f6"/><path d="M52.385 88.246h.08c-1.743-2.334-4.284-3.971-7.156-4.611h-.239l-.875-.156c-.241-.003-.481.024-.716.078l-7.315.625a1.79 1.79 0 0 1-.557-.078c-1.214-.175-2.452.073-3.499.703-2.758 1.125-4.995 3.213-6.282 5.861a20.61 20.61 0 0 0-2.226 12.347 20.15 20.15 0 0 0 4.532 11.8c2.915 3.595 6.202 5.21 9.86 4.845a.62.62 0 0 1 .239-.078c.111-.001.22-.028.318-.078l7.474-.547c.111-.001.22-.028.318-.078 3.499-.417 6.335-2.553 8.508-6.408v-.156c2.001-3.743 2.804-7.992 2.306-12.191-.268-4.357-1.939-8.517-4.771-11.878m-8.826-1.016c.212.052.504.104.875.156 2.03.486 3.827 1.645 5.089 3.282a16.3 16.3 0 0 1 3.737 9.456c.441 3.448-.227 6.946-1.908 10.003-1.122 2.405-3.387 4.104-6.043 4.533l-1.908.156c.265-.313.583-.703.954-1.172a17.64 17.64 0 0 0 1.988-4.22c.477-1.823.265-2.735-.636-2.735l-.08.234-.159.938v.156l-1.352 2.11c-.59.817-1.227 1.599-1.908 2.344a6.25 6.25 0 0 1-2.624 2.188l-2.306.703c-2.485-.243-4.744-1.524-6.202-3.517a17.39 17.39 0 0 1-3.578-9.456 17.8 17.8 0 0 1 1.829-10.003c1.114-2.464 3.475-4.16 6.202-4.454a.23.23 0 0 1 .159-.078c.182-.052.375-.052.557 0 .973.111 1.903.461 2.703 1.016a10.19 10.19 0 0 1 2.465 2.501c1.198 1.469 2.262 3.038 3.181 4.689.689 1.146 1.166 1.98 1.431 2.501a1.79 1.79 0 0 0 .239-.469 20.45 20.45 0 0 0 .08-1.876 10.49 10.49 0 0 0-.477-1.563 23.36 23.36 0 0 0-1.749-4.064l-1.272-1.563c-.464-.557-.969-1.079-1.511-1.563l2.226-.234M35.21 97.624c.249-.526.764-.883 1.352-.938.224.026.451-.029.636-.156.265-.104.371-.26.318-.469-.106-.261-.352-.442-.636-.469a4.85 4.85 0 0 0-1.59.078c-.774.335-1.476.812-2.067 1.407l-.477.547c-.185.281-.295.604-.318.938l-.477 2.423v.703l.08.547a8.41 8.41 0 0 0 1.034 3.439c.446.854 1.137 1.561 1.988 2.032.607.255 1.251.414 1.908.469l.636-.078c.329-.027.638-.165.875-.391.592-.483 1.011-1.141 1.193-1.876.263-.729.291-1.521.08-2.266a5.51 5.51 0 0 0-.398-.547.69.69 0 0 0-.96.058.67.67 0 0 0-.074.099c-.106.208-.265.547-.477 1.016-.248.464-.57.886-.954 1.25-.372.105-.768-.057-.954-.391l-.716-.938a6.97 6.97 0 0 1-.716-2.423v-.625l-.159-.625.08-.938.159-1.172.636-.703z"/><path d="M36.244 87.855c-.182-.052-.375-.052-.557 0a.23.23 0 0 0-.159.078c-2.727.294-5.088 1.991-6.202 4.454a17.8 17.8 0 0 0-1.829 10.003 17.39 17.39 0 0 0 3.578 9.456c1.458 1.993 3.717 3.274 6.202 3.517l2.306-.703a6.25 6.25 0 0 0 2.624-2.188c.681-.745 1.318-1.528 1.908-2.344l1.352-2.11v-.156l.159-.938.08-.234a16.26 16.26 0 0 0 .398-5.861l-.239-1.954c-.053-.104-.053-.182 0-.234-.005-.038.021-.073.06-.078h.099c-.265-.521-.742-1.355-1.431-2.501-.919-1.651-1.983-3.22-3.181-4.689a10.19 10.19 0 0 0-2.465-2.501c-.801-.555-1.73-.905-2.703-1.016m.318 8.831c-.588.055-1.102.412-1.352.938l-.636.703c0 .052-.053.443-.159 1.172l-.08.938.159.625v.625a6.97 6.97 0 0 0 .716 2.423l.716.938c.186.333.582.495.954.391.384-.364.706-.786.954-1.25l.477-1.016c.194-.316.611-.419.933-.229a.68.68 0 0 1 .1.072 5.51 5.51 0 0 1 .398.547c.212.745.184 1.537-.08 2.266-.182.735-.6 1.393-1.193 1.876-.237.226-.546.364-.875.391l-.636.078c-.657-.055-1.302-.213-1.908-.469-.851-.471-1.542-1.178-1.988-2.032a8.41 8.41 0 0 1-1.034-3.439l-.08-.547v-.703l.477-2.423c.024-.334.133-.657.318-.938l.477-.547c.591-.595 1.293-1.072 2.067-1.407a4.85 4.85 0 0 1 1.59-.078c.285.027.53.208.636.469.053.208-.053.365-.318.469-.185.127-.412.183-.636.156z" fill="#757171"/><path d="M44.434 87.386l-.875-.156-2.226.234c.542.484 1.047 1.006 1.511 1.563l1.272 1.563a23.36 23.36 0 0 1 1.749 4.064 10.49 10.49 0 0 1 .477 1.563l-.08 1.876a1.79 1.79 0 0 1-.239.469h-.08a.07.07 0 0 0-.08.059c-.053.072-.053.15 0 .254l.239 1.954a16.26 16.26 0 0 1-.398 5.861c.901 0 1.113.912.636 2.735a17.64 17.64 0 0 1-1.988 4.22l-.954 1.172 1.908-.156c2.656-.429 4.921-2.128 6.043-4.533 1.682-3.057 2.349-6.555 1.908-10.003a16.3 16.3 0 0 0-3.737-9.456c-1.262-1.637-3.059-2.796-5.089-3.282z" fill="#999"/><g fill="#fff"><path d="M125.356 8.71c0-1.05.225-1.794.675-2.231s1.149-.656 2.1-.656h8.7c.875 0 1.581.219 2.119.656s.806 1.181.806 2.231v7.313a2.69 2.69 0 0 1-.206.975c-.137.35-.332.688-.581 1.013s-.557.594-.919.806a2.36 2.36 0 0 1-1.219.319h-8.7c-1.85 0-2.775-1.037-2.775-3.112V8.71zm0 18.975c0-.8.225-1.487.675-2.062s1.149-.862 2.1-.862h8.588a2.69 2.69 0 0 1 .975.206c.35.137.675.338.975.6a3.91 3.91 0 0 1 .769.919 2.27 2.27 0 0 1 .318 1.2v41.813c0 .951-.262 1.669-.787 2.156s-1.275.731-2.25.731h-8.588c-1.85 0-2.775-.962-2.775-2.888V27.685zm26.287-10.35c0-.775.256-1.356.769-1.744s1.243-.756 2.194-1.106l8.512-2.962a1.83 1.83 0 0 1 .356-.038h.319c.924 0 1.543.269 1.856.806s.469 1.244.469 2.119l-.037 10.313h5.137c.8 0 1.45.238 1.95.712s.75 1.188.75 2.138v7.237c0 1.05-.25 1.819-.75 2.307s-1.15.731-1.95.731h-5.137l.037 31.65c0 .951-.275 1.669-.825 2.156s-1.312.731-2.288.731h-8.475c-1.925 0-2.887-.962-2.887-2.888l-.038-31.65h-3.863c-1.925 0-2.887-1.012-2.887-3.038v-7.237c0-1.899.962-2.85 2.887-2.85h3.863l.038-7.387zm67.8 49.35c-2.2 2.025-4.675 3.606-7.425 4.744s-5.663 1.706-8.738 1.706c-3.425 0-6.663-.625-9.712-1.875s-5.725-2.981-8.025-5.194-4.125-4.819-5.475-7.819-2.025-6.262-2.025-9.787a25.25 25.25 0 0 1 .806-6.394c.538-2.062 1.3-3.994 2.288-5.793a24.65 24.65 0 0 1 3.6-4.969c1.412-1.513 2.994-2.806 4.744-3.881a23.38 23.38 0 0 1 5.7-2.513c2.05-.6 4.212-.9 6.487-.9 2.075 0 4.087.275 6.038.825s3.781 1.325 5.494 2.325 3.281 2.2 4.706 3.6 2.65 2.932 3.675 4.594a22.17 22.17 0 0 1 2.381 5.325 20.31 20.31 0 0 1 .844 5.831l-.057 3.188c-.037.825-.231 1.481-.581 1.969s-.932.825-1.744 1.013-2.006.281-3.582.281h-27c.25 1.6.756 2.938 1.519 4.012s1.644 1.931 2.644 2.569a10.55 10.55 0 0 0 3.188 1.369c1.125.275 2.188.413 3.188.413.9 0 1.825-.094 2.775-.281s1.869-.437 2.756-.75a15.61 15.61 0 0 0 2.438-1.087c.737-.413 1.332-.844 1.781-1.294.4-.325.744-.568 1.031-.731s.594-.244.919-.244.656.113.994.338.718.55 1.144.975l3.975 4.5c.275.325.45.619.525.881a2.92 2.92 0 0 1 .113.806c0 .5-.138.932-.413 1.294s-.6.682-.975.956zm-18.038-31.237a7.18 7.18 0 0 0-2.831.581c-.912.387-1.769.907-2.569 1.557a13.36 13.36 0 0 0-2.156 2.212 13.57 13.57 0 0 0-1.556 2.512h19.163a22.03 22.03 0 0 0-1.707-2.7c-.613-.825-1.312-1.55-2.1-2.175s-1.687-1.112-2.7-1.462-2.194-.525-3.544-.525zm32.212-10.017c.325-.275.668-.45 1.031-.525a5.1 5.1 0 0 1 1.031-.113h5.663c.45 0 .837.082 1.162.244a2.51 2.51 0 0 1 .825.655c.225.274.406.586.544.936l.394 1.084.788 3.291c.375-.772.912-1.57 1.612-2.393s1.587-1.57 2.663-2.244 2.356-1.228 3.844-1.664 3.231-.654 5.231-.654c1.575 0 3.006.156 4.293.467a13.3 13.3 0 0 1 3.525 1.384c1.063.611 2.031 1.359 2.906 2.244s1.7 1.9 2.475 3.047c.475-.772 1.181-1.583 2.119-2.431s2.056-1.62 3.356-2.318 2.75-1.271 4.35-1.72 3.3-.673 5.1-.673c2.85 0 5.337.548 7.462 1.645a15.26 15.26 0 0 1 5.306 4.488c1.412 1.895 2.469 4.109 3.169 6.642s1.05 5.238 1.05 8.112v24.563c0 .951-.206 1.669-.619 2.156s-1.069.731-1.969.731h-8.663c-1.075 0-1.813-.181-2.212-.544s-.6-1.068-.6-2.119V44.935c0-1.074-.169-2.075-.506-3s-.806-1.73-1.406-2.418-1.331-1.225-2.194-1.613-1.818-.581-2.869-.581a6.61 6.61 0 0 0-2.7.563 7.18 7.18 0 0 0-2.25 1.556c-.65.663-1.169 1.462-1.557 2.4s-.581 1.969-.581 3.094v24.563c0 .951-.206 1.669-.619 2.156s-1.069.731-1.969.731h-8.663c-1.075 0-1.813-.181-2.212-.544s-.6-1.068-.6-2.119V44.935c0-1.074-.156-2.075-.469-3s-.763-1.73-1.35-2.418a6.2 6.2 0 0 0-2.137-1.613c-.837-.388-1.781-.581-2.832-.581-.9 0-1.781.182-2.644.544a7.52 7.52 0 0 0-2.325 1.537c-.687.662-1.263 1.457-1.725 2.381s-.731 1.95-.806 3.075v24.75a3.56 3.56 0 0 1-.244 1.275c-.162.425-.407.75-.731.975-.325.2-.631.337-.918.413s-.619.112-.994.112h-8.475c-1.075 0-1.851-.263-2.325-.788s-.712-1.225-.712-2.1V27.563c0-.474.106-.91.319-1.309a2.35 2.35 0 0 1 .881-.935l-.225.112zm112.874 42.267a23.48 23.48 0 0 1-2.306 2.006c-.863.663-1.8 1.256-2.812 1.781a17 17 0 0 1-3.263 1.275c-1.163.325-2.394.487-3.694.487-3.4 0-6.531-.637-9.394-1.912s-5.325-3.019-7.388-5.231-3.675-4.819-4.837-7.819-1.744-6.225-1.744-9.675c0-3.475.581-6.706 1.744-9.694s2.775-5.587 4.837-7.8 4.525-3.95 7.388-5.213 5.994-1.894 9.394-1.894c1.375 0 2.631.119 3.769.356s2.175.581 3.112 1.031 1.8.988 2.587 1.612 1.531 1.313 2.231 2.063V13.435c0-.8.244-1.475.731-2.025s1.219-.825 2.193-.825h8.437c.326 0 .67.069 1.031.206a3.45 3.45 0 0 1 .994.581 2.99 2.99 0 0 1 .732.9 2.42 2.42 0 0 1 .281 1.162v56.062c0 1.926-1.014 2.888-3.039 2.888h-7.349c-.5 0-.888-.062-1.163-.187s-.506-.306-.694-.544a3.77 3.77 0 0 1-.506-.9l-.562-1.256-.712-1.8zM324.554 48.61c0 1.65.256 3.194.769 4.631s1.244 2.681 2.194 3.731a10.43 10.43 0 0 0 3.431 2.494c1.337.613 2.818.919 4.444.919 1.6 0 3.106-.287 4.519-.862s2.644-1.369 3.693-2.381 1.894-2.206 2.531-3.582a11.73 11.73 0 0 0 1.069-4.425v-.525a11.85 11.85 0 0 0-.9-4.575 12.13 12.13 0 0 0-2.494-3.825 11.83 11.83 0 0 0-3.75-2.606c-1.438-.638-2.994-.956-4.669-.956-1.625 0-3.106.318-4.444.956a10.38 10.38 0 0 0-3.431 2.606c-.95 1.1-1.682 2.375-2.194 3.825s-.769 2.976-.769 4.575zm59.249 20.887l-.562 1.256c-.15.363-.318.663-.506.9s-.419.419-.694.544-.65.188-1.125.188h-7.425c-2 0-3-.962-3-2.888V13.473c0-.425.081-.812.244-1.163a2.95 2.95 0 0 1 .637-.9c.263-.25.563-.443.9-.581a2.63 2.63 0 0 1 .994-.207h8.512c.95 0 1.7.275 2.25.825s.825 1.225.825 2.025v15.6a19.46 19.46 0 0 1 2.25-2.062 13.49 13.49 0 0 1 2.606-1.594c.938-.437 1.969-.781 3.094-1.031s2.375-.375 3.75-.375c3.399 0 6.531.632 9.394 1.894s5.325 3 7.388 5.213 3.675 4.813 4.838 7.8 1.743 6.219 1.743 9.694c0 3.45-.581 6.675-1.743 9.675s-2.775 5.606-4.838 7.819-4.525 3.956-7.388 5.231-5.994 1.912-9.394 1.912c-1.275 0-2.494-.163-3.656-.487s-2.257-.75-3.281-1.275a18.37 18.37 0 0 1-2.831-1.781 23.51 23.51 0 0 1-2.306-2.006l-.675 1.8zm22.612-20.887a13.65 13.65 0 0 0-.769-4.575c-.513-1.45-1.244-2.725-2.193-3.825a10.45 10.45 0 0 0-3.413-2.606c-1.325-.638-2.812-.956-4.462-.956s-3.194.318-4.632.956a11.61 11.61 0 0 0-3.731 2.606c-1.05 1.1-1.881 2.375-2.493 3.825a11.65 11.65 0 0 0-.919 4.575v.525c.075 1.575.432 3.05 1.068 4.425s1.481 2.569 2.531 3.582 2.275 1.806 3.676 2.381 2.899.862 4.5.862c1.649 0 3.137-.306 4.462-.919s2.462-1.443 3.413-2.494 1.681-2.293 2.193-3.731.769-2.981.769-4.631zM156.971 96.751a5.4 5.4 0 0 1-5.399 5.398 5.3 5.3 0 0 1-3.86-1.646v1.646h-1.592V81.906h1.592V93c.972-1.026 2.349-1.646 3.86-1.646a5.4 5.4 0 0 1 5.399 5.398zm-1.566.027c0-2.133-1.728-3.86-3.887-3.86-2.079 0-3.806 1.728-3.806 3.86 0 2.104 1.728 3.832 3.806 3.832 2.159 0 3.887-1.728 3.887-3.832zm8.371 13.065h.054a3.79 3.79 0 0 0 3.833-3.807v-5.102c-.81.756-1.917 1.215-3.158 1.215-2.375 0-4.67-1.89-4.67-4.696v-5.831h1.593v5.75c0 1.809 1.242 3.212 3.158 3.212 1.781 0 3.077-1.512 3.077-3.131v-5.831h1.592v14.388c0 2.969-2.429 5.398-5.183 5.398h-.297v-1.565z"/><use xlink:href="#B"/><path d="M208.129 85.648h1.936l7.768 16.502h-4.335l-1.012-2.156h-6.755l-.99 2.156h-4.312l7.701-16.502zm2.662 10.693l-1.673-3.631-1.693 3.631h3.366zm8.359-2.442c0-4.555 3.674-8.251 8.229-8.251 2.267 0 4.313.924 5.809 2.397l-3.058 3.037c-.704-.66-1.629-1.101-2.751-1.101-2.068 0-3.895 1.65-3.895 3.917s1.87 3.916 3.895 3.916c1.299 0 2.509-.638 3.19-1.628h-3.19v-2.904h8.251v.616c0 4.555-3.696 8.251-8.251 8.251s-8.229-3.696-8.229-8.251zm19.118-8.251h1.76l7.812 7.789v-7.789h4.335v16.502h-1.782l-7.789-7.812v7.812h-4.335V85.648z"/><use xlink:href="#C"/><path d="M272.764 89.938h-4.29v-4.312h13.004v4.313h-4.379v12.212h-4.335V89.938zm11.682-4.29h4.335v16.502h-4.335V85.648zm6.863 11.463h4.4c0 .704.639 1.276 1.606 1.276.88 0 1.563-.506 1.563-1.276 0-.813-.748-1.298-1.606-1.298-3.19 0-5.941-2.267-5.941-5.083s2.487-5.082 5.985-5.082c3.301 0 5.963 2.244 5.963 5.061H298.9c0-.683-.682-1.276-1.584-1.276-.946 0-1.584.506-1.584 1.276s.638 1.298 1.584 1.298c3.366 0 5.963 2.288 5.963 5.083 0 2.816-2.597 5.061-5.896 5.061-3.609 0-6.073-2.354-6.073-5.039z"/><use xlink:href="#B" x="125.047"/><path d="M334.364 102.15a8.22 8.22 0 0 1-8.229-8.229c0-4.554 3.674-8.272 8.229-8.272s8.251 3.718 8.251 8.272-3.696 8.229-8.251 8.229zm0-12.189a3.93 3.93 0 0 0-3.916 3.938c0 2.156 1.76 3.938 3.916 3.938a3.95 3.95 0 0 0 3.938-3.938c0-2.179-1.76-3.938-3.938-3.938zm20.239-.023h-4.29v-4.312h13.004v4.313h-4.379v12.212h-4.335V89.938zm11.681-4.29h4.335v16.502h-4.335V85.648z"/><use xlink:href="#B" x="193.159"/><use xlink:href="#C" x="139.324"/><path d="M407.359 97.111h4.4c0 .704.639 1.276 1.606 1.276.88 0 1.563-.506 1.563-1.276 0-.813-.748-1.298-1.606-1.298-3.19 0-5.941-2.267-5.941-5.083s2.486-5.082 5.985-5.082c3.301 0 5.963 2.244 5.963 5.061h-4.379c0-.683-.682-1.276-1.584-1.276-.946 0-1.584.506-1.584 1.276s.638 1.298 1.584 1.298c3.366 0 5.963 2.288 5.963 5.083 0 2.816-2.597 5.061-5.896 5.061-3.609 0-6.073-2.354-6.073-5.039z"/></g><defs ><path id="B" d="M180.98 85.648h1.958l6.733 6.116 6.711-6.116h1.958v16.502h-4.356v-8.472l-4.312 3.939-4.335-3.917v8.449h-4.356V85.648z"/><path id="C" d="M255.692 85.648h10.254v3.586h-5.919v2.685h5.236v3.652h-5.236v3.036h5.919v3.543h-10.254V85.648z"/></defs></svg>