<?xml version="1.0" encoding="UTF-8"?><svg id="a" xmlns="http://www.w3.org/2000/svg" width="422.99" height="119.71" viewBox="0 0 422.99 119.71"><g id="b"><path d="M.22,14.79v-.16c0,.05,0,.1,0,.16m18.13,10.39v.08c0,.22,.05,.44,.16,.63,.05,.06,.1,.11,.16,.16l.4,.16-.72-1.02m-14.07-5.47c.1,.05,.21,.08,.32,.08-.51-.29-.7-.37-.56-.23,.07,.06,.12,.12,.16,.16,.03,0,.05,0,.08,0m-.24-.08l.08,.08h.08l-.16-.08m.4-14.3l.64-1.02c-.15,.08-.31,.16-.48,.23-.11,.24-.17,.51-.16,.78m1.27-1.25h-.4s-.1,.07-.16,.08l.56-.08m5.49-.23l.56,.31-.08-.08s-.1-.06-.16-.08c-.13-.07-.24-.12-.32-.16M41.73,.8c-.14,.04-.27,.09-.4,.16-1.72,.93-3.09,2.38-3.9,4.14,.01,.05,.01,.08,0,.08-.74,1.73-.94,3.63-.56,5.47v.08c0,.11,.03,.22,.08,.31,.36,1.24,1.08,2.35,2.07,3.2l-.08-.08c.24,.24,.51,.45,.8,.63,.1,.14,.24,.25,.4,.31,.23,.16,.51,.24,.8,.23l11.77,5.16-17.25,.39c-1.8-4.15-5.21-7.44-9.46-9.14-.42-.16-.82-.31-1.19-.47C15.99,7.21,11.38,5.12,10.96,5.02l-.08-.08c-1.67-.73-3.6-.61-5.17,.31-.04,0-.07,.02-.08,.06,0,0,0,.01,0,.02-1.65,.9-2.96,2.3-3.74,3.99-.73,1.65-.89,3.49-.48,5.24v.08c.29,1.17,.93,2.23,1.83,3.05,.3,.29,.61,.55,.95,.78l.08,.08c.11,0,.22,.03,.32,.08,.12,0,.24,.06,.32,.16l14.63,6.41v.08c2.12,1.01,3.71,2.86,4.37,5.08-.14,.1-.27,.2-.4,.31-.17,.23-.25,.5-.24,.78l-.08,.08,1.11-.23c.03,.09,.06,.17,.08,.23l.08-.08v.16l-1.19,.16,.16,.47c.09,.12,.2,.22,.32,.31,.24,.14,.52,.2,.8,.16,.08,0,.17-.04,.24-.08l5.57,19.3-6.76,3.83c-.43,.22-.77,.58-.95,1.02-.16,.43-.19,.89-.08,1.33l7.47,27.74c-1.77,1.27-3.21,2.93-4.21,4.85-2.01,3.8-2.79,8.1-2.23,12.35,.2,4.31,1.79,8.44,4.53,11.8,2.92,3.59,6.2,5.21,9.86,4.85,.07-.04,.15-.07,.24-.08,.11,0,.22-.03,.32-.08l7.47-.55c.11,0,.22-.03,.32-.08,3.5-.42,6.33-2.55,8.51-6.41v-.16c.74-1.33,1.3-2.75,1.67-4.22l17.97-1.72c.59,1.14,1.31,2.22,2.15,3.2,2.7,3.18,5.67,4.64,8.91,4.38,.1-.05,.21-.08,.32-.08,.09-.06,.21-.09,.32-.08l6.52-.47,.32-.16c3.26-.49,6.06-2.54,7.47-5.47,0-.06,.03-.12,.08-.16,1.84-3.43,2.62-7.32,2.23-11.18-.02-.17-.04-.35-.08-.55l9.94-5.47,.32-.16,.72-.47h.08l7.24-4.14c.41-.25,.74-.6,.95-1.02,.21-.41,.24-.89,.08-1.33-.18-.44-.48-.82-.87-1.09-.37-.26-.82-.4-1.27-.39l-6.36,.31-13.12-42.2c-.14-.39-.39-.75-.72-1.02-.35-.31-.8-.47-1.27-.47l-20.99-.63c0-.13-.02-.27-.08-.39-1.93-6.38-3.95-12.76-6.04-19.15,.01-.01,.01-.04,0-.08-2.04-5.68-5.46-9.45-10.26-11.33-.33-.19-.67-.35-1.03-.47-.01,.01-.04,.01-.08,0-.03-.02-.06-.05-.08-.08-7.67-3.51-11.83-5.41-12.48-5.7h0c-.05-.03-.1-.06-.16-.08h-.08s-.05-.06-.08-.08h-.08c-1.72-.66-3.65-.51-5.25,.39m24.33,31.81l.08-.47c-.37-3.5-1.42-6.9-3.1-10l-.56-.63c-.33-.14-.68-.25-1.03-.31-1.15,0-2.29-.24-3.34-.7-.61-.5-1.25-.97-1.91-1.41-1.11-.83-1.7-1.28-1.75-1.33-.46-.58-.69-1.3-.64-2.03,.06-.75,.22-1.48,.48-2.19l.56-1.25,.24-.31c-.13-.16-.21-.35-.24-.55-.21,.19-.45,.35-.72,.47-.18,.04-.37,.04-.56,0,.11,.2,.19,.41,.24,.63v1.02l-.24,1.95c-.02,.41-.13,.81-.32,1.17-.27,.68-.93,1.14-1.67,1.17-.84-.1-1.64-.42-2.31-.94-1.1-.64-2.24-1.22-3.42-1.72l-1.27-.55-3.74-2.74c-.45-.28-.83-.65-1.11-1.09-.23-.52-.34-1.08-.32-1.64-.03-.66,.05-1.32,.24-1.95,.2-.65,.75-1.13,1.43-1.25-.05-.18-.05-.37,0-.55,.19-.52,.52-.98,.95-1.33,.56-.42,1.18-.76,1.83-1.02,.6-.04,1.2,.07,1.75,.31l9.14,4.3c.33,.14,.63,.36,.87,.63,.34,.39,.46,.91,.32,1.41v.08c.13-.07,.26-.12,.4-.16,1.77-.34,3.61-.03,5.17,.86,2.91,1.63,5.22,4.12,6.6,7.11,1.36,2.96,2.4,6.05,3.1,9.22,1.33,4.95,2.36,8.47,3.1,10.55,.23,.52,.31,1.08,.24,1.64-.08,.24-.22,.45-.4,.63,.49,.02,.91,.05,1.27,.08l3.02,.39c1.27,.16,4.24,.36,8.91,.63l8.27,.31c.66-.03,1.32,.1,1.91,.39,.43,.31,.78,.71,1.03,1.17,.39,.69,.68,1.42,.87,2.19,.64,1.77,1.19,3.52,1.67,5.24l.72,3.2c.85,3.44,2.25,8.21,4.21,14.3l3.98,12.5c.26,.68,.42,1.39,.48,2.11,.09,.78-.32,1.53-1.03,1.88-.4,.17-.84,.22-1.27,.16-.58-.05-1.03-.1-1.35-.16-.94,0-1.87,.11-2.78,.31-3.63,.53-7.3,.76-10.97,.7-6.15-.05-9.86-.05-11.13,0-2.56,.07-5.12,.36-7.63,.86-1.11,.24-2.26,.19-3.34-.16-.43-.28-.78-.66-1.03-1.09,.07,.18,.12,.36,.16,.55,0,.56-.16,1.1-.48,1.56-.53,.49-1.15,.89-1.83,1.17-2.49,1.25-4.08,2.06-4.77,2.42-1.33,.64-2.56,1.45-3.66,2.42-.27,.26-.66,.63-1.19,1.09-.41,.37-.95,.57-1.51,.55-.63,0-1.22-.29-1.59-.78-.42-.44-.77-.94-1.03-1.48-.9-1.66-1.99-3.21-3.26-4.61-1.27-1.44-2.97-2.45-4.85-2.89-.73-.15-1.48-.23-2.23-.23-2.63-.16-5.26-.08-7.87,.23-.84,.23-1.74,.18-2.54-.16-1.05-.71-1.74-1.81-1.91-3.05l-5.57-21.02c-.32-.75-.34-1.58-.08-2.34,.32-.55,.75-1.03,1.27-1.41l3.02-2.27c.73-.77,1.81-1.13,2.86-.94,.58,.21,1.09,.91,1.51,2.11,.04,.13,.07,.26,.08,.39-.08-.48-.13-.92-.16-1.33-.11-.5-.06-1.02,.16-1.48,.36-.52,.82-.98,1.35-1.33,2.65-1.76,5.44-3.3,8.35-4.61,.34-.19,.73-.27,1.11-.23,.25,.07,.47,.2,.64,.39,0-.21,.03-.42,.08-.63,.3-.62,.8-1.11,1.43-1.41l1.43-.7,.48-.39,.32-.55c.53-1.03,1.44-1.81,2.54-2.19,.97-.68,2.22-.86,3.34-.47,.64,.54,1.1,1.24,1.35,2.03,.51,1.35,1.01,2.92,1.51,4.69,.21,.31,.37,.66,.48,1.02,.95,2.71,1.99,5.91,3.1,9.61l6.2,22.43c0,.05,0,.1,0,.16l1.11,2.27c.04,.07,.06,.15,.08,.23l-4.85-18.91c-2.81-10.32-4.98-17.58-6.52-21.8-.4-.69-.51-1.5-.32-2.27,.1-.42,.4-.76,.8-.94,.36-.21,.78-.29,1.19-.23l.95,.31c.45,.06,.9,.09,1.35,.08l8.11-.16h1.43c-.17-.14-.33-.3-.48-.47-.15-.14-.28-.3-.4-.47-.25,.11-.52,.16-.8,.16l-2.54,.08c-.78-.02-1.54-.29-2.15-.78-.38-.52-.68-1.1-.87-1.72-.19-.69-.27-1.4-.24-2.11,.1-.72,.64-1.3,1.35-1.48,.22,.03,.45-.03,.64-.16m-28.7-2.97c-.76-1.48-1.37-3.02-1.83-4.61-.21-.78-.08-1.3,.4-1.56l.72-.16,.87-.39c.97-.35,1.99-.53,3.02-.55l11.85-.39c2.81-.12,5.62-.09,8.43,.08,.61,.04,1.21,.2,1.75,.47,.7,.48,1.19,1.21,1.35,2.03,.37,1.04,.85,2.58,1.43,4.61,.36,.68,.42,1.47,.16,2.19-.21,.47-.82,.76-1.83,.86-4.66,.68-11.93,1.54-21.79,2.58-.5,.05-1.01,.05-1.51,0-1.06-.26-1.89-1.07-2.15-2.11-.37-1.35-.66-2.37-.87-3.05m-3.98-7.89c.5,.95,.9,1.94,1.19,2.97l5.01,15.71c.5,1.5,.88,3.05,1.11,4.61,.18,.69,.28,1.4,.32,2.11,.11,.34,.09,.7-.08,1.02-.11,.53-.57,.92-1.11,.94-.52,.11-1.06-.11-1.35-.55-.09-.1-.17-.2-.24-.31,0,.11-.03,.22-.08,.31-.26,.41-.61,.76-1.03,1.02l-1.59,1.09c-.47,.35-1.01,.59-1.59,.7-.79,0-1.51-.46-1.83-1.17-.43-.63-.68-1.36-.72-2.11l-3.26-15.08-3.18-6.02c-.78-1.42-1.9-2.63-3.26-3.52-.49-.15-.97-.33-1.43-.55-.49-.14-.91-.44-1.19-.86-.33-.65-.47-1.38-.4-2.11,.16-1.15,.27-1.85,.32-2.11,.13-.7,.61-1.28,1.27-1.56v-.08c-.06-.18-.09-.36-.08-.55,0-.41,.17-.81,.48-1.09,.66-.44,1.43-.69,2.23-.7,.58-.11,1.17-.11,1.75,0,.55,.08,1.07,.3,1.51,.63,2.63,1.43,4.87,3.47,6.52,5.94l.72,1.33m23.69,15.47c-.52-.05-1.05,.12-1.43,.47l-12.48,7.03c-.81-2.77-1.63-5.53-2.46-8.28l19.64-2.11c0,.08,0,.16,0,.23l.87,2.74-4.13-.08M18.27,15.49c-.1,.02-.21,.02-.32,0,.17,.14,.33,.3,.48,.47,.3,.28,.42,.7,.32,1.09l-.32,.94c-.2,.77-.31,1.55-.32,2.34-.21,.99-.66,1.56-1.35,1.72-.54,.08-1.1,0-1.59-.23l-9.3-4.61c-.72-.38-1.39-.85-1.99-1.41-.6-.57-1.02-1.3-1.19-2.11-.09-.73-.04-1.48,.16-2.19,.05-.49,.24-.95,.56-1.33,.38-.36,.93-.48,1.43-.31,.13,.02,.27,.05,.4,.08-.06-.15-.08-.31-.08-.47-.05-.84,.47-1.6,1.27-1.88,.79-.28,1.63-.41,2.46-.39,.5-.01,1.01,.02,1.51,.08l1.59,.55,7.32,3.44c.39,.17,.74,.41,1.03,.7,.24,.37,.35,.81,.32,1.25-.24,.38-.53,.72-.87,1.02l-.4,.55c-.25,.39-.65,.64-1.11,.7M53.74,93.56l.8,2.74c.73,2.81,1,5.71,.8,8.6-.05,.72-.21,1.43-.48,2.11-.34,1.7-.96,3.34-1.83,4.85-.83,1.56-2.18,2.8-3.82,3.52l-3.34,.94c-.57,.19-1.15,.32-1.75,.39-.58,.12-1.18-.06-1.59-.47-.52-.48-.71-1.21-.48-1.88,.03-.13,.05-.29,.08-.47-1.57,1.75-3.92,2.63-6.28,2.34-.82-.09-1.6-.36-2.31-.78l-1.51-1.09c-1.04-.93-1.93-2.01-2.62-3.2-2.21-3.83-3.28-8.19-3.1-12.58-.02-.68,.04-1.36,.16-2.03l.56-1.95c.51-1.66,1.2-3.26,2.07-4.77,.58-.95,1.4-1.73,2.39-2.27,.74-.31,1.52-.54,2.31-.7,1.09-.3,2.23-.35,3.34-.16,.7,.19,1.37,.47,1.99,.86h0c0-.08,0-.16,0-.23-.08-.6,.13-1.21,.56-1.64,.61-.46,1.38-.68,2.15-.63,2.66-.15,5.29,.65,7.39,2.27,2.1,1.61,3.67,3.78,4.53,6.25m3.9,1.56c1.75-1.21,3.62-2.26,5.57-3.13l7.87-3.83c.76-.41,1.56-.75,2.39-1.02,1.75-.54,3.57-.85,5.41-.94l21.39-.7,1.51,.23c.67,.03,1.34-.05,1.99-.23l7.47-.39c.8,.1,1.25,.26,1.35,.47,.27,.41,.16,.96-.24,1.25-.39,.29-.82,.53-1.27,.7-.88,.6-1.81,1.12-2.78,1.56-.84,.32-1.72,.53-2.62,.63,.03,.02,.06,.05,.08,.08,.37,.42,.32,.86-.16,1.33-.37,.34-.8,.61-1.27,.78-4.19,1.77-10.26,4.85-18.21,9.22-.87,.49-1.77,.91-2.7,1.25-1.28,.29-2.58,.45-3.9,.47-2.86,.1-6.47,.44-10.81,1.02-6.63,.89-10.2,1.35-10.73,1.41-.65,.17-1.35,.05-1.91-.31-.42-.5-.57-1.17-.4-1.8-.03-.74,.05-1.47,.24-2.19,.05-.38,.22-.73,.48-1.02-.31-.35-.5-.79-.56-1.25-.05-.47-.05-.94,0-1.41,.35-.91,.99-1.67,1.83-2.19m41.9,.23c.79,.14,1.47,.63,1.83,1.33,.37,.67,.51,1.44,.4,2.19-.13,1.43-.5,2.83-1.11,4.14-.78,2.3-2.18,4.35-4.06,5.94-1.19,.78-2.47,1.41-3.82,1.88-.63,.26-1.3,.42-1.99,.47-.69,.15-1.41-.17-1.75-.78-.21-.3-.33-.65-.32-1.02-.55,.62-1.27,1.08-2.07,1.33l-1.75,.23c-.77,.02-1.54-.03-2.31-.16-.88-.29-1.69-.74-2.39-1.33-.64-.65-1.23-1.36-1.75-2.11-.32-.31-.56-.68-.72-1.09-.21-.39-.24-.84-.08-1.25,.25-.5,.72-.87,1.27-1.02l4.21-.16c1.17-.08,2.33-.35,3.42-.78,.4-.15,.75-.39,1.03-.7,.2-.47,.5-.89,.87-1.25,.33-.18,.68-.34,1.03-.47,.64-.22,1.34-.22,1.99,0,.23,.09,.43,.26,.56,.47,.07-.48,.26-.94,.56-1.33l1.11-1.17,3.5-2.42c.67-.52,1.46-.84,2.31-.94M36.16,61.52c.13,.57,.24,1.09,.32,1.56,.37,1.56,.58,2.42,.64,2.58,.23,.84,.67,1.62,1.27,2.27,.31-.3,.63-.64,.95-1.02-.47,.22-1.02,.16-1.43-.16-.46-.41-.77-.96-.87-1.56-.32-1.44-.61-2.66-.87-3.67Z"/><path d="M78.94,104.11c-.55,.14-1.02,.51-1.27,1.02-.16,.41-.13,.86,.08,1.25,.16,.41,.4,.78,.72,1.09,.52,.75,1.11,1.46,1.75,2.11,.7,.59,1.51,1.04,2.39,1.33,.76,.13,1.53,.18,2.31,.16l1.75-.23c.8-.24,1.52-.7,2.07-1.33,.09-.07,.16-.15,.24-.23,.54-.77,1.02-1.58,1.43-2.42l.48-.94c.39-.6,.69-1.26,.87-1.95l.48-1.8c.07-.32,.01-.66-.16-.94-.13-.21-.33-.37-.56-.47-.64-.22-1.34-.22-1.99,0-.36,.13-.7,.29-1.03,.47-.37,.36-.67,.78-.87,1.25-.28,.31-.64,.55-1.03,.7-1.09,.44-2.24,.7-3.42,.78l-4.21,.16m-41.82-17.43c-1.11-.2-2.25-.14-3.34,.16-.79,.16-1.56,.39-2.31,.7-.98,.54-1.8,1.32-2.39,2.27-.87,1.51-1.56,3.11-2.07,4.77l-.56,1.95c-.12,.67-.18,1.35-.16,2.03-.18,4.4,.89,8.75,3.1,12.58,.7,1.2,1.58,2.28,2.62,3.2l1.51,1.09c.7,.42,1.49,.69,2.31,.78,2.36,.29,4.71-.59,6.28-2.34,.12-.06,.23-.14,.32-.23,1.31-1.37,2.12-3.13,2.31-5,0-.18,0-.36,0-.55v-.08c.26-.66,.44-1.34,.56-2.03,.11-.99,.19-1.72,.24-2.19,.05-1.3,.02-2.61-.08-3.91-.07-1.02-.2-2.04-.4-3.05h0c.03-.37-.02-.75-.16-1.09-.73-3.39-2.82-6.35-5.8-8.21h0c-.61-.38-1.28-.67-1.99-.86Z" style="fill:#757171;"/><path d="M101.36,96.69c-.36-.7-1.04-1.19-1.83-1.33-.84,.1-1.64,.42-2.31,.94l-3.5,2.42-1.11,1.17c-.29,.39-.49,.85-.56,1.33,.17,.28,.23,.62,.16,.94l-.48,1.8c-.19,.69-.48,1.35-.87,1.95l-.48,.94c-.41,.84-.89,1.66-1.43,2.42-.07,.08-.15,.16-.24,.23,0,.36,.1,.72,.32,1.02,.34,.61,1.05,.93,1.75,.78,.68-.05,1.36-.2,1.99-.47,1.35-.47,2.63-1.1,3.82-1.88,1.87-1.58,3.27-3.64,4.06-5.94,.61-1.31,.99-2.71,1.11-4.14,.11-.75-.03-1.52-.4-2.19m-46.83-.39l-.8-2.74c-.86-2.47-2.43-4.65-4.53-6.25-2.1-1.61-4.73-2.42-7.39-2.27-.77-.06-1.53,.17-2.15,.63-.43,.43-.64,1.04-.56,1.64,0,.08,0,.16,0,.23,2.98,1.85,5.07,4.81,5.8,8.21,.14,.35,.19,.72,.16,1.09h0c.2,1.01,.33,2.02,.4,3.05,.1,1.3,.13,2.6,.08,3.91-.05,.47-.13,1.2-.24,2.19-.11,.69-.3,1.38-.56,2.03v.08c0,.19,0,.37,0,.55-.18,1.87-.99,3.63-2.31,5-.09,.1-.2,.17-.32,.23-.03,.18-.05,.33-.08,.47-.23,.66-.04,1.4,.48,1.88,.41,.41,1.01,.59,1.59,.47,.6-.07,1.18-.2,1.75-.39l3.34-.94c1.64-.72,2.98-1.96,3.82-3.52,.87-1.51,1.49-3.14,1.83-4.85,.26-.68,.43-1.39,.48-2.11,.2-2.89-.07-5.79-.8-8.6Z" style="fill:#999;"/><path d="M58.9,99.81c-.11,.06-.21,.11-.32,.16-.24-.23-.55-.39-.87-.47-.4-.06-.81,.06-1.11,.31-.08,.05-.16,.1-.24,.16-.26,.28-.43,.64-.48,1.02-.19,.71-.27,1.45-.24,2.19-.17,.63-.03,1.3,.4,1.8,.56,.36,1.26,.48,1.91,.31,.53-.05,4.11-.52,10.73-1.41,4.35-.57,7.95-.91,10.81-1.02,1.31-.02,2.62-.17,3.9-.47,.93-.34,1.84-.76,2.7-1.25,7.95-4.38,14.02-7.45,18.21-9.22,.47-.17,.91-.44,1.27-.78,.48-.47,.53-.91,.16-1.33-.02-.03-.05-.06-.08-.08-.42-.34-.99-.46-1.51-.31l-2.39,.47-.4,.16c-2.25,.19-5.51,.43-9.78,.7-4.5,.26-8.99,.75-13.44,1.48-1.22,.13-2.42,.39-3.58,.78l-15.66,6.8M20.66,16.66c-.17-.12-.31-.28-.4-.47v.08c-.66,.28-1.14,.87-1.27,1.56-.05,.26-.16,.96-.32,2.11-.07,.73,.07,1.46,.4,2.11,.28,.42,.7,.72,1.19,.86,.46,.21,.94,.4,1.43,.55,1.36,.89,2.48,2.1,3.26,3.52l3.18,6.02,3.26,15.08c.04,.75,.29,1.48,.72,2.11,.32,.71,1.04,1.17,1.83,1.17,.58-.12,1.12-.36,1.59-.7l1.59-1.09c.42-.26,.77-.6,1.03-1.02,.05-.1,.08-.2,.08-.31-.11-.33-.19-.67-.24-1.02-.27-1.35-.82-3.39-1.67-6.1l-4.37-14.3c-.35-1.5-.91-2.95-1.67-4.3-1.17-2.14-2.93-3.9-5.09-5.08-.71-.52-1.58-.79-2.46-.78l-1.11,.16c-.33,.07-.67,.01-.95-.16m47.55,9.61c-.42-1.62-.85-3.06-1.27-4.3-.35-.78-.64-1.43-.87-1.95-.45-1.13-.98-2.23-1.59-3.28-1.06-1.34-2.39-2.45-3.9-3.28-.68-.46-1.4-.85-2.15-1.17l-.72,.23c-.64,.27-1.37,.24-1.99-.08-.24-.12-.45-.28-.64-.47l-.24,.31-.56,1.25c-.26,.7-.42,1.44-.48,2.19-.05,.73,.18,1.46,.64,2.03,.05,.05,.64,.49,1.75,1.33,.66,.43,1.3,.9,1.91,1.41,1.05,.46,2.19,.7,3.34,.7,.36,.06,.7,.17,1.03,.31l.56,.63c1.68,3.11,2.73,6.5,3.1,10l-.08,.47c-.19,.13-.41,.18-.64,.16-.71,.18-1.25,.77-1.35,1.48-.03,.71,.05,1.42,.24,2.11,.2,.61,.49,1.2,.87,1.72,.61,.49,1.36,.76,2.15,.78l2.54-.08c.27,0,.54-.05,.8-.16-.37-.46-.52-1.06-.4-1.64l.32-1.02c.03-.47-.03-.95-.16-1.41l-2.23-8.28Z" style="fill:#9cb2da;"/><path d="M63.2,92c-1.95,.87-3.81,1.92-5.57,3.13-.83,.52-1.48,1.28-1.83,2.19-.05,.47-.05,.94,0,1.41,.05,.46,.25,.9,.56,1.25,.08-.06,.16-.11,.24-.16,.31-.26,.71-.37,1.11-.31,.33,.08,.63,.24,.87,.47,.11-.05,.21-.1,.32-.16l15.66-6.8c1.16-.39,2.36-.65,3.58-.78,4.45-.73,8.93-1.23,13.44-1.48,4.27-.28,7.53-.51,9.78-.7l.4-.16,2.39-.47c.53-.14,1.09-.03,1.51,.31,.9-.09,1.78-.3,2.62-.63,.97-.44,1.9-.97,2.78-1.56,.45-.18,.88-.41,1.27-.7,.4-.29,.51-.84,.24-1.25-.11-.21-.56-.36-1.35-.47l-7.47,.39c-.64,.19-1.32,.27-1.99,.23l-1.51-.23-21.39,.7c-1.84,.09-3.65,.4-5.41,.94-.83,.27-1.62,.61-2.39,1.02l-7.87,3.83M34.57,24.71c-.29-1.03-.69-2.02-1.19-2.97l-.72-1.33c-1.65-2.47-3.89-4.51-6.52-5.94-.44-.33-.96-.54-1.51-.63-.58-.11-1.17-.11-1.75,0-.8,.01-1.57,.26-2.23,.7-.31,.28-.48,.68-.48,1.09,0,.19,.02,.37,.08,.55,.09,.19,.23,.35,.4,.47,.29,.17,.63,.23,.95,.16l1.11-.16c.89,0,1.75,.27,2.46,.78,2.16,1.18,3.92,2.94,5.09,5.08,.76,1.35,1.32,2.8,1.67,4.3l4.37,14.3c.85,2.71,1.4,4.74,1.67,6.1,.05,.35,.13,.69,.24,1.02,.07,.11,.15,.22,.24,.31,.29,.44,.83,.65,1.35,.55,.55-.02,1.01-.41,1.11-.94,.16-.31,.19-.68,.08-1.02-.03-.71-.14-1.42-.32-2.11-.24-1.57-.61-3.11-1.11-4.61l-5.01-15.71m.95,.31c.46,1.59,1.07,3.14,1.83,4.61,.21,.68,.5,1.69,.87,3.05,.26,1.04,1.09,1.85,2.15,2.11,.5,.05,1.01,.05,1.51,0,9.86-1.04,17.12-1.9,21.79-2.58,1.01-.1,1.62-.39,1.83-.86,.26-.72,.2-1.51-.16-2.19-.58-2.03-1.06-3.57-1.43-4.61-.17-.82-.65-1.55-1.35-2.03-.54-.27-1.14-.43-1.75-.47-2.81-.17-5.62-.2-8.43-.08l-11.85,.39c-1.03,.01-2.05,.2-3.02,.55l-.87,.39-.72,.16c-.48,.26-.61,.78-.4,1.56m31.41-3.05c.42,1.24,.85,2.68,1.27,4.3l2.23,8.28c.13,.46,.19,.93,.16,1.41l-.32,1.02c-.12,.58,.02,1.18,.4,1.64,.12,.17,.25,.33,.4,.47,.14,.17,.3,.33,.48,.47,1.02,.01,1.9,.04,2.62,.08,.18-.18,.32-.39,.4-.63,.07-.56,0-1.13-.24-1.64-.74-2.08-1.78-5.6-3.1-10.55-.7-3.17-1.74-6.26-3.1-9.22-1.38-3-3.69-5.48-6.6-7.11-1.56-.89-3.4-1.2-5.17-.86-.14,.04-.27,.09-.4,.16-.17,.47-.41,.92-.72,1.33-.12,.12-.25,.22-.4,.31,.03,.2,.11,.39,.24,.55,.18,.19,.4,.35,.64,.47,.62,.31,1.35,.34,1.99,.08l.72-.23c.75,.32,1.47,.72,2.15,1.17,1.51,.83,2.83,1.94,3.9,3.28,.61,1.06,1.14,2.15,1.59,3.28,.24,.53,.53,1.18,.87,1.95Z" style="fill:#c3d4f6;"/><path d="M17.96,15.49c-.2-.1-.42-.18-.64-.23-.05,0-.11,0-.16,0l-.08-.08c-.09-.13-.17-.26-.24-.39l-6.92-2.66c-1.01-.42-1.78-.76-2.31-1.02-.38-.23-.76-.44-1.11-.63h0c-.05,.01-.11,.01-.16,0-.06-.02-.11-.05-.16-.08-.3-.18-.62-.34-.95-.47-.13-.03-.26-.06-.4-.08-.5-.16-1.05-.04-1.43,.31-.32,.38-.51,.84-.56,1.33-.2,.71-.25,1.46-.16,2.19,.17,.81,.59,1.54,1.19,2.11,.6,.55,1.26,1.03,1.99,1.41l9.3,4.61c.49,.23,1.05,.31,1.59,.23,.69-.16,1.14-.73,1.35-1.72,0-.79,.12-1.58,.32-2.34l.32-.94c.1-.39-.02-.81-.32-1.09-.15-.17-.31-.33-.48-.47m35.86-2.97c-.05-.22-.13-.43-.24-.63-.27-.53-.84-.84-1.43-.78h-.08c-.09-.18-.17-.36-.24-.55l-5.88-2.34c-.72-.25-1.41-.57-2.07-.94-.37-.2-.72-.38-1.03-.55h0s-.06-.05-.08-.08c-.43-.41-.99-.65-1.59-.7h-.08c-.68,.12-1.23,.6-1.43,1.25-.19,.63-.27,1.29-.24,1.95-.02,.56,.09,1.13,.32,1.64,.28,.44,.66,.82,1.11,1.09l3.74,2.74,1.27,.55c1.18,.5,2.32,1.08,3.42,1.72,.67,.52,1.46,.84,2.31,.94,.74-.03,1.4-.49,1.67-1.17,.19-.37,.3-.76,.32-1.17l.24-1.95v-1.02Z" style="fill:#992300;"/><path d="M17.96,15.49c.1,.02,.21,.02,.32,0,.46-.06,.87-.32,1.11-.7l.4-.55c.34-.29,.64-.64,.87-1.02,.04-.44-.08-.88-.32-1.25-.3-.3-.65-.54-1.03-.7l-7.32-3.44-1.59-.55c-.5-.06-1.01-.09-1.51-.08-.84-.02-1.67,.11-2.46,.39-.81,.27-1.33,1.04-1.27,1.88,0,.16,.02,.32,.08,.47,.33,.13,.65,.29,.95,.47,.05,.03,.1,.06,.16,.08,.05,.01,.11,.01,.16,0h0c.36,.19,.73,.4,1.11,.63,.53,.26,1.3,.6,2.31,1.02l6.92,2.66c.07,.14,.15,.27,.24,.39l.08,.08c.05,0,.11,0,.16,0,.22,.05,.43,.13,.64,.23m38.01-5.7v-.08c.14-.49,.02-1.02-.32-1.41-.24-.27-.54-.48-.87-.63l-9.14-4.3c-.55-.25-1.15-.35-1.75-.31-.65,.26-1.27,.6-1.83,1.02-.43,.35-.76,.81-.95,1.33-.05,.18-.05,.37,0,.55h.08c.6,.05,1.16,.3,1.59,.7,.02,.03,.05,.06,.08,.08h0c.32,.17,.66,.35,1.03,.55,.66,.37,1.35,.68,2.07,.94l5.88,2.34c.07,.19,.15,.37,.24,.55h.08c.6-.06,1.16,.25,1.43,.78,.18,.04,.37,.04,.56,0,.26-.12,.51-.27,.72-.47,.14-.09,.28-.19,.4-.31,.3-.41,.54-.85,.72-1.33Z" style="fill:#cc3305;"/><path d="M45.94,47.37c-.17-.19-.39-.32-.64-.39-.39-.04-.78,.04-1.11,.23-2.91,1.31-5.7,2.85-8.35,4.61-.53,.35-.99,.8-1.35,1.33-.22,.46-.27,.99-.16,1.48,.03,.4,.08,.85,.16,1.33,.55,1.58,.98,2.99,1.27,4.22l.16,.39c.01,.08,.01,.16,0,.23,.04,.05,.06,.1,.08,.16l.16,.55c.27,1.01,.56,2.24,.87,3.67,.11,.6,.41,1.15,.87,1.56,.41,.31,.96,.37,1.43,.16,.88-.97,1.7-1.99,2.46-3.05,.39-.48,.81-.92,1.27-1.33,.88-.36,1.84-.47,2.78-.31l4.69,.55c-1.48-5.63-2.92-10.42-4.29-14.38-.13-.33-.24-.67-.32-1.02Z" style="fill:#b49b85;"/><path d="M32.9,53.47c-1.05-.19-2.13,.16-2.86,.94l-3.02,2.27c-.52,.38-.95,.86-1.27,1.41-.26,.77-.24,1.6,.08,2.34l5.57,21.02c.17,1.24,.86,2.34,1.91,3.05,.81,.33,1.7,.39,2.54,.16,2.61-.31,5.25-.39,7.87-.23,.75,0,1.49,.08,2.23,.23,1.88,.44,3.58,1.45,4.85,2.89,1.27,1.41,2.36,2.95,3.26,4.61,.27,.54,.61,1.04,1.03,1.48,.37,.5,.96,.79,1.59,.78,.56,.02,1.1-.17,1.51-.55,.53-.47,.93-.83,1.19-1.09,1.1-.97,2.33-1.79,3.66-2.42,.69-.36,2.28-1.17,4.77-2.42,.67-.28,1.29-.68,1.83-1.17,.32-.46,.48-1.01,.48-1.56-.04-.19-.09-.37-.16-.55-.11-.27-.29-.66-.56-1.17-.01-.08-.04-.16-.08-.23l-1.11-2.27c0-.05,0-.1,0-.16l-6.2-22.43c-1.11-3.7-2.15-6.9-3.1-9.61-.11-.36-.27-.7-.48-1.02-.5-1.77-1-3.33-1.51-4.69-.25-.79-.72-1.49-1.35-2.03-1.12-.39-2.37-.21-3.34,.47-1.1,.38-2.02,1.16-2.54,2.19l-.32,.55-.48,.39-1.43,.7c-.63,.29-1.13,.79-1.43,1.41-.05,.2-.08,.41-.08,.63,.08,.35,.19,.69,.32,1.02,1.38,3.96,2.81,8.75,4.29,14.38l-4.69-.55c-.94-.16-1.9-.05-2.78,.31-.46,.41-.88,.85-1.27,1.33-.76,1.06-1.59,2.08-2.46,3.05-.33,.37-.65,.71-.95,1.02-.6-.65-1.04-1.42-1.27-2.27-.05-.16-.27-1.02-.64-2.58-.08-.47-.19-.99-.32-1.56l-.16-.55c-.02-.06-.04-.11-.08-.16,.01-.08,.01-.16,0-.23l-.16-.39c-.3-1.23-.72-2.64-1.27-4.22,0-.13-.04-.26-.08-.39-.42-1.2-.93-1.9-1.51-2.11Z" style="fill:#805632;"/><path d="M71.55,39.56h-1.43l-8.11,.16c-.45,0-.9-.02-1.35-.08l-.95-.31c-.41-.05-.83,.03-1.19,.23-.4,.18-.69,.52-.8,.94-.2,.77-.08,1.58,.32,2.27,1.54,4.22,3.71,11.49,6.52,21.8l4.85,18.91c.26,.51,.45,.9,.56,1.17,.25,.44,.61,.81,1.03,1.09,1.08,.35,2.23,.4,3.34,.16,2.51-.5,5.07-.79,7.63-.86,1.27-.05,4.98-.05,11.13,0,3.67,.06,7.34-.18,10.97-.7,.91-.21,1.85-.31,2.78-.31,.32,.05,.77,.1,1.35,.16,.43,.07,.87,.01,1.27-.16,.71-.35,1.13-1.1,1.03-1.88-.05-.72-.21-1.43-.48-2.11l-3.98-12.5c-1.96-6.1-3.37-10.86-4.21-14.3l-.72-3.2c-.48-1.72-1.03-3.46-1.67-5.24-.19-.76-.49-1.5-.87-2.19-.26-.46-.61-.86-1.03-1.17-.59-.29-1.25-.42-1.91-.39l-8.27-.31c-4.66-.26-7.63-.47-8.91-.63l-3.02-.39c-.36-.03-.78-.06-1.27-.08-.73-.04-1.6-.06-2.62-.08Z" style="fill:#b07d50;"/></g><g id="c"><path d="M41.73,.8c-.14,.04-.27,.09-.4,.16-1.72,.93-3.09,2.38-3.9,4.14,.01,.05,.01,.08,0,.08-.74,1.73-.94,3.63-.56,5.47v.08c0,.11,.03,.22,.08,.31,.36,1.24,1.08,2.35,2.07,3.2l-.08-.08c.24,.24,.51,.45,.8,.63,.1,.14,.24,.25,.4,.31,.23,.16,.51,.24,.8,.23l13.04,5.7c.07,.07,.15,.12,.24,.16,1.89,1.22,3.25,3.09,3.82,5.24l10.02,34.46h.08c.11,.38,.27,.75,.48,1.09,.1,.2,.27,.37,.48,.47,.31,.15,.63,.29,.95,.39,.05,.01,.08,.01,.08,0,.47,.14,.98,.11,1.43-.08h0l9.14-2.74c.05,.01,.08,.01,.08,0,.65-.24,1.21-.67,1.59-1.25,.1-.11,.15-.25,.16-.39,.17-.5,.23-1.04,.16-1.56-.02-.06-.05-.11-.08-.16-1.51-5.98-3.13-11.94-4.85-17.9-2.04-6.89-4.19-13.74-6.44-20.55,.01-.01,.01-.04,0-.08-2.04-5.68-5.46-9.45-10.26-11.33-.33-.19-.67-.35-1.03-.47-.01,.01-.04,.01-.08,0-.03-.02-.06-.05-.08-.08-7.67-3.51-11.83-5.41-12.48-5.7h0c-.05-.03-.1-.06-.16-.08h-.08s-.05-.06-.08-.08h-.08c-1.72-.66-3.65-.51-5.25,.39m36.18,55.41l-2.62,.86-3.42,1.02-9.62-32.98v-.16c-1.48-4.17-3.6-6.72-6.36-7.66h.08l-.64-.23c-.21-.37-.37-.76-.48-1.17v.08c-.16-.51-.21-1.04-.16-1.56,.11-.52,.29-1.02,.56-1.48,.03-.22,.11-.44,.24-.63,.43-.69,1.03-1.25,1.75-1.64,.27-.16,.57-.26,.87-.31,.09,0,.17,.02,.24,.08s.15,.08,.24,.08c.26,.12,.5,.28,.72,.47h.08c3.77,1.58,6.63,4.73,7.79,8.6,2.23,6.82,4.35,13.65,6.36,20.47,1.54,5.42,2.99,10.81,4.37,16.18M53.18,11.11s-.08,.1-.08,.16c-.06,.13-.12,.26-.16,.39l-.16,.31c-.16,.38-.3,.77-.4,1.17-.26,.78-.34,1.61-.24,2.42l-9.3-4.06s-.1-.07-.16-.08c-.1-.1-.25-.16-.4-.16l-.32-.31c-.39-.28-.64-.7-.72-1.17-.1-.38-.15-.78-.16-1.17,.06-.6,.25-1.19,.56-1.72l-.08,.08c.08-.26,.21-.5,.4-.7,.32-.63,.85-1.13,1.51-1.41h-.08c.63-.35,1.37-.43,2.07-.23l-.16-.08c.37,.1,3.6,1.59,9.7,4.45-.74,.58-1.36,1.3-1.83,2.11Z"/><path d="M53.18,11.11c.47-.81,1.09-1.53,1.83-2.11-6.1-2.87-9.33-4.35-9.7-4.45l.16,.08c-.69-.2-1.44-.11-2.07,.23h.08c-.66,.28-1.19,.78-1.51,1.41,.48,.26,1.11,.6,1.91,1.02,.66,.37,1.35,.68,2.07,.94l7.24,2.89Z" style="fill:#cc3305;"/><path d="M53.1,11.27c0-.06,.03-.12,.08-.16l-7.24-2.89c-.72-.25-1.41-.57-2.07-.94-.8-.42-1.43-.76-1.91-1.02-.19,.2-.32,.44-.4,.7l.08-.08c-.3,.53-.49,1.11-.56,1.72,0,.4,.06,.79,.16,1.17,.07,.47,.33,.89,.72,1.17l.32,.31c.15,0,.29,.05,.4,.16,.06,0,.12,.03,.16,.08l9.3,4.06c-.1-.81-.02-1.64,.24-2.42,.1-.4,.23-.79,.4-1.17l.16-.31c.04-.13,.1-.26,.16-.39Z" style="fill:#992300;"/><path d="M69.48,34.56c-1.8-6.1-2.92-9.87-3.34-11.33-.69-2.22-1.77-4.31-3.18-6.17-1.22-1.42-2.74-2.56-4.45-3.36-.74-.36-1.75-.83-3.02-1.41-.12,.19-.21,.4-.24,.63-.26,.46-.45,.96-.56,1.48-.05,.53,0,1.06,.16,1.56v-.08c.1,.41,.26,.8,.48,1.17l.64,.23h-.08c2.76,.94,4.88,3.49,6.36,7.66v.16l9.62,32.98,3.42-1.02c-1.86-7.61-3.79-15.11-5.8-22.51Z" style="fill:#9cb2da;"/><path d="M66.14,23.23c.42,1.46,1.54,5.24,3.34,11.33,2.01,7.4,3.95,14.9,5.8,22.51l2.62-.86c-1.38-5.37-2.84-10.76-4.37-16.18-2.01-6.82-4.13-13.65-6.36-20.47-1.16-3.86-4.02-7.02-7.79-8.6h-.08c-.21-.19-.45-.35-.72-.47-.09,0-.17-.02-.24-.08s-.15-.08-.24-.08c-.31,.05-.61,.15-.87,.31-.72,.39-1.32,.96-1.75,1.64,1.27,.57,2.28,1.04,3.02,1.41,1.71,.8,3.23,1.94,4.45,3.36,1.41,1.86,2.49,3.95,3.18,6.17Z" style="fill:#c3d4f6;"/></g><g id="d"><path d="M68.76,32.21c.11-.31,.08-.65-.08-.94l-3.82-10c-.11-.3-.31-.57-.56-.78-.28-.24-.67-.33-1.03-.23l-34.51,.78c-.38-.07-.76,.05-1.03,.31-.31,.2-.54,.51-.64,.86-.11,.36-.11,.74,0,1.09l4.53,12.66c.17,.38,.45,.7,.8,.94,.3,.22,.66,.33,1.03,.31l33.87-3.59c.32-.05,.62-.19,.87-.39,.29-.27,.49-.63,.56-1.02m-4.13-1.88l-30.14,3.2-3.26-9.14,30.77-.78,2.62,6.72Z"/><path d="M34.49,33.54l30.14-3.2-2.62-6.72-30.77,.78,3.26,9.14Z" style="fill:#c3d4f6;"/></g><g id="e"><path d="M37.67,23.3c-.01-.11-.04-.21-.08-.31-2.19-6.2-5.93-10.32-11.21-12.35-.38-.16-.75-.31-1.11-.47h0c-7.87-3.62-12.45-5.67-13.76-6.17-.04-.06-.1-.11-.16-.16-1.94-.86-4.18-.77-6.04,.23-.29,.07-.54,.24-.72,.47-1.65,1.03-2.97,2.49-3.82,4.22,.01,.05,.01,.08,0,.08C-.01,10.67-.21,12.69,.22,14.63c0,.11,0,.21,0,.31,.36,1.39,1.14,2.64,2.23,3.59l-.08-.08c.29,.29,.61,.55,.95,.78l.08,.08c.19,.21,.44,.34,.72,.39h.16s.1,.08,.16,.08l14.23,6.25c.11,.13,.24,.24,.4,.31,1.78,.73,3.19,2.58,4.21,5.55,.04,.11,.09,.22,.16,.31l10.81,37.28c.04,.54,.3,1.05,.72,1.41,.12,.12,.25,.23,.4,.31,.27,.09,.53,.2,.8,.31,.05,.04,.08,.07,.08,.08,.51,.21,1.08,.21,1.59,0l10.1-3.05h0c.78-.21,1.42-.76,1.75-1.48h0c.35-.65,.44-1.4,.24-2.11-1.67-6.5-3.45-12.96-5.33-19.38-2.14-7.54-4.44-14.97-6.92-22.27m-13.04-8.36l.08,.16c4.12,1.72,7.2,5.21,8.35,9.46,2.49,7.4,4.82,14.82,7,22.27,1.7,5.84,3.31,11.75,4.85,17.74l-2.94,.94-3.66,1.09L27.89,30.57c-.04-.07-.07-.15-.08-.23-1.75-4.58-4.03-7.4-6.84-8.44l-.72-.16c-.26-.35-.45-.75-.56-1.17-.16-.59-.18-1.2-.08-1.8,.06-.55,.22-1.08,.48-1.56v.08c.11-.21,.21-.44,.32-.7,.44-.79,1.1-1.45,1.91-1.88,.32-.1,.61-.21,.87-.31,.12,0,.24,.06,.32,.16,.07,.04,.15,.07,.24,.08,.32,.1,.61,.21,.87,.31m-4.77-2.03c-.77,.66-1.42,1.46-1.91,2.34-.05,.04-.08,.1-.08,.16-.12,.12-.23,.25-.32,.39l-.16,.31v.08c-.16,.43-.3,.88-.4,1.33-.26,.86-.34,1.76-.24,2.66L6.59,15.72l-.16-.16c-.14-.1-.31-.15-.48-.16-.03-.13-.12-.24-.24-.31-.45-.32-.76-.79-.87-1.33-.05-.41-.08-.83-.08-1.25,.05-.62,.21-1.23,.48-1.8,.06-.28,.17-.54,.32-.78,.45-.7,1.08-1.27,1.83-1.64l-.08,.08c.67-.41,1.5-.47,2.23-.16h-.08c.74,.21,4.21,1.77,10.42,4.69Z"/><path d="M17.88,15.41c0-.06,.03-.12,.08-.16l-8.03-3.13c-1.01-.42-1.78-.76-2.31-1.02-.8-.47-1.48-.86-2.07-1.17-.15,.24-.26,.5-.32,.78-.26,.57-.43,1.18-.48,1.8,0,.42,.03,.84,.08,1.25,.11,.53,.43,1.01,.87,1.33,.12,.07,.21,.18,.24,.31,.17,0,.34,.06,.48,.16l.16,.16,10.18,4.45c-.1-.89-.02-1.8,.24-2.66,.1-.45,.23-.9,.4-1.33v-.08l.16-.31c.09-.14,.2-.27,.32-.39Z" style="fill:#992300;"/><path d="M17.96,15.26c.49-.89,1.13-1.68,1.91-2.34-6.2-2.92-9.67-4.48-10.42-4.69h.08c-.72-.31-1.56-.25-2.23,.16l.08-.08c-.75,.37-1.38,.94-1.83,1.64,.58,.31,1.27,.7,2.07,1.17,.53,.26,1.3,.6,2.31,1.02l8.03,3.13Z" style="fill:#cc3305;"/><path d="M20.42,16.58c-.11,.26-.21,.49-.32,.7v-.08c-.26,.49-.42,1.02-.48,1.56-.11,.6-.08,1.21,.08,1.8,.11,.42,.3,.82,.56,1.17l.72,.16c2.81,1.04,5.09,3.86,6.84,8.44,0,.08,.04,.16,.08,.23l10.42,36.03,3.66-1.09c-2.01-8.44-4.08-16.62-6.2-24.54-2.01-6.72-3.29-10.86-3.82-12.43-.69-2.46-1.85-4.77-3.42-6.8-1.32-1.53-2.94-2.78-4.77-3.67-.85-.42-1.96-.91-3.34-1.48Z" style="fill:#9cb2da;"/><path d="M24.71,15.1l-.08-.16c-.27-.1-.56-.21-.87-.31-.08,0-.17-.04-.24-.08-.08-.09-.19-.15-.32-.16-.27,.1-.56,.21-.87,.31-.81,.43-1.47,1.08-1.91,1.88,1.38,.57,2.49,1.07,3.34,1.48,1.83,.9,3.45,2.14,4.77,3.67,1.57,2.03,2.73,4.34,3.42,6.8,.53,1.56,1.8,5.7,3.82,12.43,2.12,7.92,4.19,16.1,6.2,24.54l2.94-.94c-1.54-5.99-3.15-11.9-4.85-17.74-2.17-7.45-4.51-14.87-7-22.27-1.15-4.25-4.23-7.74-8.35-9.46Z" style="fill:#c3d4f6;"/></g><g id="f"><path d="M98.5,85.75h.08c-1.6-2.08-3.87-3.57-6.44-4.22h-.24c-.24-.05-.48-.08-.72-.08-.29-.05-.6-.03-.87,.08l-6.52,.63c-.12-.06-.26-.08-.4-.08-1.03-.21-2.11-.04-3.02,.47-.09,.04-.17,.09-.24,.16l.16-.16c-2.52,1.01-4.55,2.94-5.65,5.39-1.8,3.41-2.5,7.29-1.99,11.1v.08c.13,3.82,1.53,7.5,3.98,10.47,2.7,3.18,5.67,4.64,8.91,4.38,.1-.05,.21-.08,.32-.08,.09-.06,.21-.09,.32-.08l6.52-.47,.32-.16c3.26-.49,6.06-2.54,7.47-5.47,0-.06,.03-.12,.08-.16,1.84-3.43,2.62-7.32,2.23-11.18-.29-3.89-1.79-7.6-4.29-10.63m-7.16-.78c1.76,.51,3.32,1.55,4.45,2.97,1.96,2.42,3.15,5.36,3.42,8.44,.39,3.05-.23,6.14-1.75,8.83-1.03,2.15-3.04,3.69-5.41,4.14l-1.75,.08c.62-.77,1.11-1.65,1.43-2.58,.58-1.51,.61-2.5,.08-2.97l-.72,1.48c-.48,.57-1.09,1.25-1.83,2.03-.53,.87-1.3,1.58-2.23,2.03l-2.15,.55c-2.18-.22-4.17-1.32-5.49-3.05-1.88-2.44-2.99-5.38-3.18-8.44-.38-3.08,.17-6.21,1.59-8.99,1.01-2.2,3.12-3.72,5.57-3.99h.08c.18-.05,.37-.05,.56,0,.86,.11,1.68,.43,2.39,.94,.86,.52,1.59,1.21,2.15,2.03,1.06,1.38,2.05,2.81,2.94,4.3,.45,.71,.82,1.47,1.11,2.27,.13-.14,.24-.3,.32-.47,.11-.54,.11-1.1,0-1.64,0-.5-.13-.98-.4-1.41-.38-1.28-.92-2.51-1.59-3.67l-1.03-1.33c-.42-.52-.9-.99-1.43-1.41l2.07-.23c.27,0,.53,.03,.8,.08m-6.84,7.5c-.44-.1-.9-.12-1.35-.08-.71,.33-1.36,.78-1.91,1.33l-.48,.47c-.07,.26-.13,.52-.16,.78l-.4,2.19v.63l.08,.55c.04,1.05,.34,2.07,.87,2.97,.38,.79,1.02,1.43,1.83,1.8,.51,.21,1.04,.34,1.59,.39h.72c.27-.06,.52-.19,.72-.39,.48-.42,.84-.96,1.03-1.56,.26-.68,.29-1.42,.08-2.11-.21-.26-.37-.44-.48-.55-.21-.15-.51-.09-.66,.12-.03,.04-.05,.08-.06,.12-.26,.23-.46,.53-.56,.86-.2,.47-.5,.9-.87,1.25-.33,0-.63-.19-.8-.47l-.64-.86c-.35-.66-.56-1.37-.64-2.11v-.63l-.16-.47v-.86c.05-.37,.13-.74,.24-1.09l.56-.63c.25-.46,.74-.76,1.27-.78,.2-.03,.4-.11,.56-.23,.16-.06,.26-.22,.24-.39-.19-.14-.41-.22-.64-.23Z"/><path d="M86.42,86.45c-.7-.51-1.52-.83-2.39-.94-.18-.05-.37-.05-.56,0h-.08c-2.44,.27-4.56,1.78-5.57,3.99-1.42,2.78-1.97,5.9-1.59,8.99,.19,3.06,1.3,6,3.18,8.44,1.32,1.72,3.31,2.83,5.49,3.05l2.15-.55c.92-.46,1.7-1.16,2.23-2.03,.74-.78,1.35-1.46,1.83-2.03l.72-1.48,.32-.47v-.08l.32-.86v-.23c.43-1.68,.54-3.43,.32-5.16,0-.6-.05-1.2-.16-1.8-.05-.04-.08-.1-.08-.16,0-.04,.02-.07,.06-.08,0,0,.01,0,.02,0-.29-.79-.66-1.55-1.11-2.27-.9-1.49-1.88-2.92-2.94-4.3-.56-.82-1.29-1.51-2.15-2.03m-3.26,5.94c.45-.05,.91-.02,1.35,.08,.23,.02,.45,.1,.64,.23,.02,.17-.07,.33-.24,.39-.16,.13-.35,.21-.56,.23-.53,.02-1.02,.32-1.27,.78l-.56,.63c-.11,.36-.19,.72-.24,1.09v.86l.16,.47v.63c.08,.74,.29,1.45,.64,2.11l.64,.86c.16,.28,.46,.46,.8,.47,.38-.35,.68-.78,.87-1.25,.1-.33,.29-.63,.56-.86,.08-.24,.35-.37,.6-.29,.04,.01,.08,.03,.12,.06,.11,.1,.27,.29,.48,.55,.21,.69,.18,1.43-.08,2.11-.2,.6-.55,1.14-1.03,1.56-.19,.2-.44,.33-.72,.39h-.72c-.55-.05-1.08-.19-1.59-.39-.81-.37-1.45-1.01-1.83-1.8-.54-.9-.84-1.92-.87-2.97l-.08-.55v-.63l.4-2.19c.03-.26,.08-.53,.16-.78l.48-.47c.55-.55,1.2-1,1.91-1.33h0Z" style="fill:#757171;"/><path d="M95.8,87.93c-1.13-1.42-2.69-2.46-4.45-2.97-.26-.05-.53-.07-.8-.08l-2.07,.23c.53,.42,1.01,.89,1.43,1.41l1.03,1.33c.67,1.16,1.21,2.39,1.59,3.67,.27,.42,.4,.91,.4,1.41,.11,.54,.11,1.1,0,1.64-.08,.17-.19,.33-.32,.47-.04,0-.07,.02-.08,.06,0,0,0,.01,0,.02,0,.06,.03,.12,.08,.16,.11,.59,.17,1.19,.16,1.8,.22,1.72,.11,3.47-.32,5.16v.23l-.32,.86v.08l-.32,.47c.53,.47,.5,1.46-.08,2.97-.33,.93-.81,1.8-1.43,2.58l1.75-.08c2.37-.46,4.38-1.99,5.41-4.14,1.52-2.69,2.14-5.78,1.75-8.83-.27-3.08-1.46-6.02-3.42-8.44Z" style="fill:#999;"/></g><g id="g"><path d="M73.77,40.73c-3.45-.1-6.02-.16-7.71-.16-2.58-.03-5.16,.15-7.71,.55-4.65,1.04-9.08,2.83-13.12,5.31-5.41,3.44-9.52,5.91-12.32,7.42-1.29,.65-2.54,1.38-3.74,2.19-1.18,.77-2.12,1.85-2.7,3.13-.74,1.72-.69,4.25,.16,7.58,.53,2.45,1.3,6.15,2.31,11.1,.9,4.32,1.8,7.97,2.7,10.94,.64,2.03,1.62,5.05,2.94,9.07,.42,1.57,.95,3.11,1.59,4.61,.58,1.43,1.61,2.63,2.94,3.44,1.39,.71,2.98,.98,4.53,.78,1.62-.23,3.22-.59,4.77-1.09,5.69-1.75,11.61-2.69,17.57-2.81,1.28,.03,2.55-.05,3.82-.23,1.29-.23,2.42-1,3.1-2.11,1.36,.96,3.16,1.05,4.61,.23,1.44-.7,2.82-1.51,4.13-2.42,1.92-.97,3.91-1.78,5.96-2.42,4.35-1.57,8.53-3.56,12.48-5.94,1.09-.68,2.24-1.28,3.42-1.8,.42-.16,1.14-.36,2.15-.63,.7-.19,1.39-.43,2.07-.7,1.89-.76,3.16-2.53,3.26-4.53-.1-1.92-.64-3.79-1.59-5.47-2.07-4.27-3.74-8.72-5.01-13.29-1.33-5.89-2.44-10.29-3.34-13.21l-.72-2.58c.04-1.1-.06-2.21-.32-3.28-.66-2.16-2.51-3.77-4.77-4.14-2.18-.4-4.4-.48-6.6-.23-6.68,.52-11.64,.76-14.87,.7m-33.32,35.24l7.24-1.72c.92-.12,1.82-.33,2.7-.63,1.83-.65,3.27-2.09,3.9-3.91,.21-.78,.5-1.22,.87-1.33l5.57,23.44c-5.25,.41-10.43,1.43-15.43,3.05l-4.85-18.91Z" style="fill:#805632;"/></g><g id="h"><path d="M99.69,38.86c-.35-.31-.8-.47-1.27-.47l-41.35-1.17c-.52-.05-1.05,.12-1.43,.47L23.6,55.74c-.43,.22-.77,.58-.95,1.02-.16,.43-.19,.89-.08,1.33l13.36,49.62c.13,.53,.47,.98,.95,1.25,.43,.32,.97,.46,1.51,.39l36.5-5.7c.28-.04,.54-.12,.8-.23l37.45-16.65c.45-.23,.79-.62,.95-1.09,.26-.45,.32-.99,.16-1.48l-13.84-44.31c-.14-.39-.39-.75-.72-1.02M27.18,58.55l6.12-3.52,3.82,13.44c.01,.3,.2,.58,.48,.7,.31,.19,.67,.3,1.03,.31,.36-.05,.68-.25,.87-.55l4.61-5.08,7.24,.94c.36,.04,.73-.04,1.03-.23,.24-.19,.43-.43,.56-.7,.11-.28,.08-.6-.08-.86l-5.33-16.02,8.19-4.53,16.22,57.44-32.28,5.08-12.48-46.42m8.75-4.92l9.22-5.16,4.45,13.21-5.88-.7c-.25,0-.49,.06-.72,.16-.17,.08-.34,.18-.48,.31l-3.34,3.83-3.26-11.64m73.71,30.09l-33.71,14.93-16.14-57.2,37.05,1.09,12.8,41.18Z"/><path d="M75.92,98.64l33.71-14.93-12.8-41.18-37.05-1.09,16.14,57.2Z" style="fill:#b07d50;"/><path d="M45.15,48.47l-9.22,5.16,3.26,11.64,3.34-3.83c.14-.13,.3-.23,.48-.31,.23-.1,.47-.15,.72-.16l5.88,.7-4.45-13.21Z" style="fill:#b49b85;"/><path d="M33.3,55.03l-6.12,3.52,12.48,46.42,32.28-5.08-16.22-57.44-8.19,4.53,5.33,16.02c.16,.26,.19,.58,.08,.86-.13,.27-.32,.51-.56,.7-.31,.19-.67,.28-1.03,.23l-7.24-.94-4.61,5.08c-.19,.3-.51,.5-.87,.55-.37-.01-.72-.12-1.03-.31-.28-.13-.47-.4-.48-.7l-3.82-13.44Z" style="fill:#805632;"/></g><g id="i"><path d="M30.92,106.38c-.42,.26-.76,.64-.95,1.09-.21,.41-.24,.89-.08,1.33,.09,.5,.41,.93,.87,1.17,.37,.31,.87,.46,1.35,.39l53.19-4.92c.27-.09,.54-.19,.8-.31l26.56-14.77,.32-.16,.72-.47h.08l7.24-4.14c.41-.25,.74-.6,.95-1.02,.21-.41,.24-.89,.08-1.33-.18-.44-.48-.82-.87-1.09-.37-.26-.82-.4-1.27-.39l-45.64,2.19c-.31,0-.61,.08-.87,.23l-42.46,22.19m17.25-4.38l10.89-5.7v-.08l15.9-8.13,36.26-1.8-.24,.16-.16,.16-5.57,2.97-20.83,11.64-42.22,4.06,5.96-3.28Z"/><path d="M48.17,102l-5.96,3.28,42.22-4.06,20.83-11.64c-11.34,.68-18.79,1.2-22.34,1.56-3.55,.36-6.04,.6-7.47,.7l-28.7,12.66,1.35-1.56,.08-.94Z" style="fill:#9cb2da;"/><path d="M59.06,96.29l-10.89,5.7-.08,.94-1.35,1.56,28.7-12.66c1.43-.1,3.92-.34,7.47-.7,3.55-.36,11-.89,22.34-1.56l5.57-2.97,.16-.16,.24-.16-36.26,1.8-15.9,8.13v.08Z" style="fill:#c3d4f6;"/></g><g id="j"><path d="M52.38,88.25h.08c-1.74-2.33-4.28-3.97-7.16-4.61h-.24c-.32-.05-.61-.1-.87-.16-.24,0-.48,.02-.72,.08l-7.32,.63c-.19,0-.38-.02-.56-.08-1.21-.18-2.45,.07-3.5,.7-2.76,1.13-4.99,3.21-6.28,5.86-2.01,3.8-2.79,8.1-2.23,12.35,.2,4.31,1.79,8.44,4.53,11.8,2.92,3.59,6.2,5.21,9.86,4.85,.07-.04,.15-.07,.24-.08,.11,0,.22-.03,.32-.08l7.47-.55c.11,0,.22-.03,.32-.08,3.5-.42,6.33-2.55,8.51-6.41v-.16c2-3.74,2.8-7.99,2.31-12.19-.27-4.36-1.94-8.52-4.77-11.88m-8.83-1.02c.21,.05,.5,.1,.87,.16,2.03,.49,3.83,1.65,5.09,3.28,2.23,2.69,3.54,6,3.74,9.46,.44,3.45-.23,6.95-1.91,10-1.12,2.4-3.39,4.1-6.04,4.53l-1.91,.16c.27-.31,.58-.7,.95-1.17,.85-1.32,1.52-2.73,1.99-4.22,.48-1.82,.27-2.74-.64-2.74l-.08,.23-.16,.94v.16l-1.35,2.11c-.59,.82-1.23,1.6-1.91,2.34-.65,.96-1.56,1.71-2.62,2.19l-2.31,.7c-2.49-.24-4.74-1.52-6.2-3.52-2.11-2.74-3.35-6.03-3.58-9.46-.38-3.44,.26-6.91,1.83-10,1.11-2.46,3.48-4.16,6.2-4.45,.04-.05,.1-.07,.16-.08,.18-.05,.37-.05,.56,0,.97,.11,1.9,.46,2.7,1.02,.96,.69,1.8,1.53,2.46,2.5,1.2,1.47,2.26,3.04,3.18,4.69,.69,1.15,1.17,1.98,1.43,2.5,.1-.14,.18-.3,.24-.47,.05-.57,.08-1.2,.08-1.88-.12-.53-.28-1.05-.48-1.56-.45-1.41-1.04-2.77-1.75-4.06l-1.27-1.56c-.46-.56-.97-1.08-1.51-1.56l2.23-.23m-8.35,10.39c.25-.53,.76-.88,1.35-.94,.22,.03,.45-.03,.64-.16,.27-.1,.37-.26,.32-.47-.11-.26-.35-.44-.64-.47-.53-.06-1.07-.04-1.59,.08-.77,.33-1.48,.81-2.07,1.41l-.48,.55c-.19,.28-.29,.6-.32,.94l-.48,2.42v.7l.08,.55c.09,1.21,.44,2.38,1.03,3.44,.45,.85,1.14,1.56,1.99,2.03,.61,.26,1.25,.41,1.91,.47l.64-.08c.33-.03,.64-.16,.87-.39,.59-.48,1.01-1.14,1.19-1.88,.26-.73,.29-1.52,.08-2.27-.12-.19-.25-.37-.4-.55-.28-.24-.71-.22-.96,.06-.03,.03-.05,.06-.07,.1-.11,.21-.27,.55-.48,1.02-.25,.46-.57,.89-.95,1.25-.37,.1-.77-.06-.95-.39l-.72-.94c-.38-.76-.63-1.58-.72-2.42v-.63l-.16-.63,.08-.94c.11-.73,.16-1.12,.16-1.17l.64-.7Z"/><path d="M36.24,87.86c-.18-.05-.37-.05-.56,0-.06,0-.12,.03-.16,.08-2.73,.29-5.09,1.99-6.2,4.45-1.57,3.09-2.21,6.57-1.83,10,.23,3.43,1.47,6.72,3.58,9.46,1.46,1.99,3.72,3.27,6.2,3.52l2.31-.7c1.06-.47,1.97-1.23,2.62-2.19,.68-.74,1.32-1.53,1.91-2.34l1.35-2.11v-.16l.16-.94,.08-.23c.49-1.91,.62-3.9,.4-5.86-.05-.68-.13-1.33-.24-1.95-.05-.1-.05-.18,0-.23,0-.04,.02-.07,.06-.08,0,0,.01,0,.02,0h.08c-.27-.52-.74-1.35-1.43-2.5-.92-1.65-1.98-3.22-3.18-4.69-.67-.97-1.5-1.81-2.46-2.5-.8-.56-1.73-.9-2.7-1.02m.32,8.83c-.59,.05-1.1,.41-1.35,.94l-.64,.7c0,.05-.05,.44-.16,1.17l-.08,.94,.16,.63v.63c.09,.84,.33,1.66,.72,2.42l.72,.94c.19,.33,.58,.5,.95,.39,.38-.36,.71-.79,.95-1.25,.21-.47,.37-.81,.48-1.02,.19-.32,.61-.42,.93-.23,.04,.02,.07,.05,.1,.07,.14,.17,.28,.36,.4,.55,.21,.75,.18,1.54-.08,2.27-.18,.73-.6,1.39-1.19,1.88-.24,.23-.55,.36-.87,.39l-.64,.08c-.66-.06-1.3-.21-1.91-.47-.85-.47-1.54-1.18-1.99-2.03-.59-1.06-.94-2.23-1.03-3.44l-.08-.55v-.7l.48-2.42c.02-.33,.13-.66,.32-.94l.48-.55c.59-.59,1.29-1.07,2.07-1.41,.52-.11,1.06-.14,1.59-.08,.28,.03,.53,.21,.64,.47,.05,.21-.05,.36-.32,.47-.19,.13-.41,.18-.64,.16Z" style="fill:#757171;"/><path d="M44.43,87.39c-.37-.05-.66-.1-.87-.16l-2.23,.23c.54,.48,1.05,1.01,1.51,1.56l1.27,1.56c.71,1.3,1.3,2.66,1.75,4.06,.2,.51,.36,1.03,.48,1.56,0,.68-.03,1.3-.08,1.88-.06,.17-.14,.32-.24,.47h-.08s-.07,.02-.08,.06c0,0,0,.01,0,.02-.05,.05-.05,.13,0,.23,.11,.63,.19,1.28,.24,1.95,.22,1.96,.09,3.95-.4,5.86,.9,0,1.11,.91,.64,2.74-.47,1.49-1.14,2.9-1.99,4.22-.37,.47-.69,.86-.95,1.17l1.91-.16c2.66-.43,4.92-2.13,6.04-4.53,1.68-3.06,2.35-6.55,1.91-10-.2-3.46-1.51-6.77-3.74-9.46-1.26-1.64-3.06-2.8-5.09-3.28Z" style="fill:#999;"/></g><g><path d="M125.36,8.71c0-1.05,.23-1.79,.68-2.23,.45-.44,1.15-.66,2.1-.66h8.7c.88,0,1.58,.22,2.12,.66,.54,.44,.81,1.18,.81,2.23v7.31c0,.3-.07,.62-.21,.97-.14,.35-.33,.69-.58,1.01-.25,.33-.56,.59-.92,.81-.36,.21-.77,.32-1.22,.32h-8.7c-1.85,0-2.77-1.04-2.77-3.11v-7.31Zm0,18.97c0-.8,.23-1.49,.68-2.06,.45-.57,1.15-.86,2.1-.86h8.59c.3,0,.62,.07,.97,.21,.35,.14,.68,.34,.98,.6,.3,.26,.56,.57,.77,.92,.21,.35,.32,.75,.32,1.2v41.81c0,.95-.26,1.67-.79,2.16-.53,.49-1.28,.73-2.25,.73h-8.59c-1.85,0-2.77-.96-2.77-2.89V27.68Z" style="fill:#fff;"/><path d="M151.64,17.34c0-.77,.26-1.36,.77-1.74,.51-.39,1.24-.76,2.19-1.11l8.51-2.96c.12-.02,.24-.04,.36-.04h.32c.92,0,1.54,.27,1.86,.81,.31,.54,.47,1.24,.47,2.12l-.04,10.31h5.14c.8,0,1.45,.24,1.95,.71,.5,.48,.75,1.19,.75,2.14v7.24c0,1.05-.25,1.82-.75,2.31-.5,.49-1.15,.73-1.95,.73h-5.14l.04,31.65c0,.95-.28,1.67-.82,2.16-.55,.49-1.31,.73-2.29,.73h-8.48c-1.93,0-2.89-.96-2.89-2.89l-.04-31.65h-3.86c-1.93,0-2.89-1.01-2.89-3.04v-7.24c0-1.9,.96-2.85,2.89-2.85h3.86l.04-7.39Z" style="fill:#fff;"/><path d="M219.44,66.68c-2.2,2.03-4.68,3.61-7.42,4.74-2.75,1.14-5.66,1.71-8.74,1.71-3.43,0-6.66-.62-9.71-1.88-3.05-1.25-5.73-2.98-8.02-5.19-2.3-2.21-4.12-4.82-5.48-7.82s-2.02-6.26-2.02-9.79c0-2.2,.27-4.33,.81-6.39s1.3-3.99,2.29-5.79c.99-1.8,2.19-3.46,3.6-4.97,1.41-1.51,2.99-2.81,4.74-3.88,1.75-1.07,3.65-1.91,5.7-2.51,2.05-.6,4.21-.9,6.49-.9,2.07,0,4.09,.28,6.04,.83,1.95,.55,3.78,1.33,5.49,2.32,1.71,1,3.28,2.2,4.71,3.6,1.43,1.4,2.65,2.93,3.68,4.59,1.02,1.66,1.82,3.44,2.38,5.33s.84,3.83,.84,5.83c0,1.3-.02,2.36-.06,3.19-.04,.83-.23,1.48-.58,1.97-.35,.49-.93,.83-1.74,1.01-.81,.19-2.01,.28-3.58,.28h-27c.25,1.6,.76,2.94,1.52,4.01,.76,1.08,1.64,1.93,2.64,2.57,1,.64,2.06,1.09,3.19,1.37,1.12,.28,2.19,.41,3.19,.41,.9,0,1.82-.09,2.77-.28s1.87-.44,2.76-.75c.89-.31,1.7-.67,2.44-1.09,.74-.41,1.33-.84,1.78-1.29,.4-.32,.74-.57,1.03-.73,.29-.16,.59-.24,.92-.24s.66,.11,.99,.34c.34,.22,.72,.55,1.14,.97l3.98,4.5c.27,.33,.45,.62,.52,.88,.08,.26,.11,.53,.11,.81,0,.5-.14,.93-.41,1.29-.28,.36-.6,.68-.98,.96Zm-18.04-31.24c-.97,0-1.92,.19-2.83,.58-.91,.39-1.77,.91-2.57,1.56-.8,.65-1.52,1.39-2.16,2.21-.64,.82-1.16,1.66-1.56,2.51h19.16c-.52-.97-1.09-1.88-1.71-2.7-.61-.83-1.31-1.55-2.1-2.18-.79-.62-1.69-1.11-2.7-1.46-1.01-.35-2.19-.52-3.54-.52Z" style="fill:#fff;"/><path d="M233.62,25.43c.32-.27,.67-.45,1.03-.52,.36-.08,.71-.11,1.03-.11h5.66c.45,0,.84,.08,1.16,.24,.32,.16,.6,.38,.83,.66,.23,.27,.41,.59,.54,.94,.14,.35,.27,.71,.39,1.08l.79,3.29c.38-.77,.91-1.57,1.61-2.39,.7-.82,1.59-1.57,2.66-2.24,1.07-.67,2.36-1.23,3.84-1.66,1.49-.44,3.23-.65,5.23-.65,1.57,0,3.01,.16,4.29,.47,1.29,.31,2.46,.77,3.52,1.38,1.06,.61,2.03,1.36,2.91,2.24s1.7,1.9,2.48,3.05c.47-.77,1.18-1.58,2.12-2.43,.94-.85,2.06-1.62,3.36-2.32,1.3-.7,2.75-1.27,4.35-1.72,1.6-.45,3.3-.67,5.1-.67,2.85,0,5.34,.55,7.46,1.65,2.12,1.1,3.89,2.59,5.31,4.49,1.41,1.9,2.47,4.11,3.17,6.64,.7,2.53,1.05,5.24,1.05,8.11v24.56c0,.95-.21,1.67-.62,2.16-.41,.49-1.07,.73-1.97,.73h-8.66c-1.08,0-1.81-.18-2.21-.54-.4-.36-.6-1.07-.6-2.12v-24.79c0-1.07-.17-2.07-.51-3-.34-.92-.81-1.73-1.41-2.42-.6-.69-1.33-1.22-2.19-1.61-.86-.39-1.82-.58-2.87-.58-.95,0-1.85,.19-2.7,.56-.85,.38-1.6,.89-2.25,1.56-.65,.66-1.17,1.46-1.56,2.4s-.58,1.97-.58,3.09v24.56c0,.95-.21,1.67-.62,2.16-.41,.49-1.07,.73-1.97,.73h-8.66c-1.08,0-1.81-.18-2.21-.54-.4-.36-.6-1.07-.6-2.12v-24.79c0-1.07-.16-2.07-.47-3-.31-.92-.76-1.73-1.35-2.42-.59-.69-1.3-1.22-2.14-1.61-.84-.39-1.78-.58-2.83-.58-.9,0-1.78,.18-2.64,.54-.86,.36-1.64,.88-2.33,1.54-.69,.66-1.26,1.46-1.73,2.38-.46,.93-.73,1.95-.81,3.08v24.75c0,.43-.08,.85-.24,1.27-.16,.43-.41,.75-.73,.98-.33,.2-.63,.34-.92,.41-.29,.07-.62,.11-.99,.11h-8.48c-1.08,0-1.85-.26-2.33-.79-.48-.52-.71-1.22-.71-2.1V27.56c0-.47,.11-.91,.32-1.31,.21-.4,.51-.71,.88-.94l-.23,.11Z" style="fill:#fff;"/><path d="M346.49,67.7c-.67,.67-1.44,1.34-2.31,2.01-.86,.66-1.8,1.26-2.81,1.78-1.01,.52-2.1,.95-3.26,1.27-1.16,.32-2.39,.49-3.69,.49-3.4,0-6.53-.64-9.39-1.91-2.86-1.28-5.33-3.02-7.39-5.23s-3.67-4.82-4.84-7.82-1.74-6.23-1.74-9.67,.58-6.71,1.74-9.69c1.16-2.99,2.77-5.59,4.84-7.8,2.06-2.21,4.52-3.95,7.39-5.21,2.86-1.26,5.99-1.89,9.39-1.89,1.38,0,2.63,.12,3.77,.36,1.14,.24,2.17,.58,3.11,1.03,.94,.45,1.8,.99,2.59,1.61,.79,.62,1.53,1.31,2.23,2.06V13.43c0-.8,.24-1.47,.73-2.02,.49-.55,1.22-.82,2.19-.82h8.44c.33,0,.67,.07,1.03,.21,.36,.14,.7,.33,.99,.58,.3,.25,.54,.55,.73,.9s.28,.74,.28,1.16v56.06c0,1.93-1.01,2.89-3.04,2.89h-7.35c-.5,0-.89-.06-1.16-.19-.28-.12-.51-.31-.69-.54-.19-.24-.36-.54-.51-.9-.15-.36-.34-.78-.56-1.26l-.71-1.8Zm-21.94-19.09c0,1.65,.26,3.19,.77,4.63,.51,1.44,1.24,2.68,2.19,3.73,.95,1.05,2.09,1.88,3.43,2.49,1.34,.61,2.82,.92,4.44,.92s3.11-.29,4.52-.86c1.41-.58,2.64-1.37,3.69-2.38,1.05-1.01,1.89-2.21,2.53-3.58,.64-1.37,.99-2.85,1.07-4.42v-.52c0-1.6-.3-3.12-.9-4.58-.6-1.45-1.43-2.72-2.49-3.82-1.06-1.1-2.31-1.97-3.75-2.61-1.44-.64-2.99-.96-4.67-.96s-3.11,.32-4.44,.96-2.48,1.51-3.43,2.61c-.95,1.1-1.68,2.38-2.19,3.82-.51,1.45-.77,2.98-.77,4.58Z" style="fill:#fff;"/><path d="M383.8,69.5c-.22,.48-.41,.89-.56,1.26-.15,.36-.32,.66-.51,.9-.19,.24-.42,.42-.69,.54-.28,.13-.65,.19-1.12,.19h-7.42c-2,0-3-.96-3-2.89V13.47c0-.42,.08-.81,.24-1.16,.16-.35,.38-.65,.64-.9,.26-.25,.56-.44,.9-.58,.34-.14,.67-.21,.99-.21h8.51c.95,0,1.7,.28,2.25,.83,.55,.55,.83,1.23,.83,2.02v15.6c.7-.75,1.45-1.44,2.25-2.06,.8-.62,1.67-1.16,2.61-1.59,.94-.44,1.97-.78,3.09-1.03,1.12-.25,2.38-.38,3.75-.38,3.4,0,6.53,.63,9.39,1.89,2.86,1.26,5.33,3,7.39,5.21,2.06,2.21,3.67,4.81,4.84,7.8,1.16,2.99,1.74,6.22,1.74,9.69s-.58,6.67-1.74,9.67c-1.16,3-2.78,5.61-4.84,7.82s-4.53,3.96-7.39,5.23c-2.86,1.27-5.99,1.91-9.39,1.91-1.28,0-2.49-.16-3.66-.49-1.16-.33-2.26-.75-3.28-1.27-1.03-.52-1.97-1.12-2.83-1.78-.86-.66-1.63-1.33-2.31-2.01l-.67,1.8Zm22.61-20.89c0-1.6-.26-3.12-.77-4.58-.51-1.45-1.24-2.72-2.19-3.82-.95-1.1-2.09-1.97-3.41-2.61s-2.81-.96-4.46-.96-3.19,.32-4.63,.96-2.68,1.51-3.73,2.61c-1.05,1.1-1.88,2.38-2.49,3.82-.61,1.45-.92,2.98-.92,4.58v.52c.08,1.58,.43,3.05,1.07,4.42,.64,1.38,1.48,2.57,2.53,3.58,1.05,1.01,2.28,1.81,3.68,2.38,1.4,.58,2.9,.86,4.5,.86s3.14-.31,4.46-.92c1.33-.61,2.46-1.44,3.41-2.49,.95-1.05,1.68-2.29,2.19-3.73,.51-1.44,.77-2.98,.77-4.63Z" style="fill:#fff;"/></g><g><path d="M156,96.75c0,2.97-2.4,5.4-5.4,5.4-1.51,0-2.89-.62-3.86-1.65v1.65h-1.59v-20.24h1.59v11.09c.97-1.03,2.35-1.65,3.86-1.65,3,0,5.4,2.43,5.4,5.4Zm-1.57,.03c0-2.13-1.73-3.86-3.89-3.86s-3.81,1.73-3.81,3.86,1.73,3.83,3.81,3.83,3.89-1.73,3.89-3.83Z" style="fill:#fff;"/><path d="M162.8,109.84h.05c2.16,0,3.83-1.7,3.83-3.81v-5.1c-.81,.76-1.92,1.21-3.16,1.21-2.38,0-4.67-1.89-4.67-4.7v-5.83h1.59v5.75c0,1.81,1.24,3.21,3.16,3.21,1.78,0,3.08-1.51,3.08-3.13v-5.83h1.59v14.39c0,2.97-2.43,5.4-5.18,5.4h-.3v-1.57Z" style="fill:#fff;"/><path d="M180.38,81.91h2.4l8.26,7.5,8.23-7.5h2.4v20.24h-5.34v-10.39l-5.29,4.83-5.32-4.8v10.37h-5.34v-20.24Z" style="fill:#fff;"/><path d="M219.1,89.73v12.42h-4.4v-.59c-.97,.57-2.05,.86-3.24,.86-3.62,0-6.53-2.86-6.53-6.48s2.92-6.48,6.53-6.48c1.19,0,2.27,.3,3.24,.86v-.59h4.4Zm-5.32,6.26c0-1.32-1-2.4-2.32-2.4s-2.4,1.08-2.4,2.4,1.11,2.43,2.4,2.43,2.32-1.08,2.32-2.43Z" style="fill:#fff;"/><path d="M236.11,89.73v13.55c0,3.89-2.81,7.02-7.04,7.02h-2.94v-4.35h3.02c1.7,0,2.56-1.03,2.56-2.67v-1.73c-.97,.57-2.05,.86-3.24,.86-3.62,0-6.53-2.86-6.53-6.48s2.92-6.48,6.53-6.48c1.19,0,2.27,.3,3.24,.86v-.59h4.4Zm-5.32,6.26c0-1.32-1-2.4-2.32-2.4s-2.4,1.08-2.4,2.4,1.11,2.43,2.4,2.43,2.32-1.08,2.32-2.43Z" style="fill:#fff;"/><path d="M239.89,89.73h4.32v.08c.57-.22,1.24-.38,1.97-.38,3.08,0,5.86,2.51,5.86,5.97v6.75h-4.05v-6.75c0-1.16-.81-1.92-1.73-1.92-1.21,0-2.05,.84-2.05,1.92v6.75h-4.32v-12.42Z" style="fill:#fff;"/><path d="M254.88,95.94c0-3.59,2.89-6.48,6.5-6.48s6.42,2.89,6.42,6.48c0,.43-.03,.86-.11,1.29h-9.02c.49,.97,1.51,1.67,2.7,1.67,.51,0,1.03-.13,1.43-.38l2.56,2.56c-1.13,.81-2.51,1.32-4,1.32-3.62,0-6.5-2.86-6.5-6.48Zm9.1-1.24c-.43-1-1.4-1.7-2.59-1.7s-2.24,.7-2.73,1.7h5.32Z" style="fill:#fff;"/><path d="M277.88,93h-2.13v9.15h-4.32v-9.15h-2.13v-3.27h2.13v-3.72h4.32v3.72h2.13v3.27Z" style="fill:#fff;"/><path d="M280.85,89.73h4.32v12.42h-4.32v-12.42Zm.3-3.27c0-1.08,.89-2,2-2s1.97,.92,1.97,2-.89,2-1.97,2-2-.92-2-2Z" style="fill:#fff;"/><path d="M287.87,98.45h3.56c0,.57,.51,1,1.35,1,.78,0,1.24-.41,1.24-1s-.49-1-1.32-1c-2.35,0-4.8-1.51-4.8-3.94,0-2.56,2.4-4.05,4.8-4.05s4.86,1.7,4.86,4h-3.54c0-.46-.43-.97-1.32-.97-.65,0-1.24,.35-1.24,.97s.59,1,1.38,1c1.54,0,4.72,.97,4.72,4.08,0,2.35-2.48,3.89-4.8,3.89-3,0-4.89-1.97-4.89-3.97Z" style="fill:#fff;"/><path d="M320.24,95.4v6.75h-4.08v-6.75c0-1.08-.81-1.89-1.89-1.89-1,0-1.84,.81-1.84,1.89v6.75h-4.1v-6.45c0-1.46-.7-2.19-1.86-2.19-1.08,0-1.92,.81-1.92,2.19v6.45h-4.32v-12.42h4.32v.08c.54-.22,1.19-.35,2.02-.35,1.43,0,2.78,.54,3.83,1.46,1.05-.92,2.51-1.46,4.02-1.46,2.92,0,5.8,2.56,5.8,5.94Z" style="fill:#fff;"/><path d="M323.08,95.94c0-3.56,2.92-6.48,6.5-6.48s6.51,2.92,6.51,6.48-2.92,6.48-6.51,6.48-6.5-2.89-6.5-6.48Zm8.91,0c0-1.3-1.05-2.4-2.38-2.4-1.43,0-2.46,1.11-2.46,2.4s1.05,2.43,2.46,2.43c1.32,0,2.38-1.11,2.38-2.43Z" style="fill:#fff;"/><path d="M350.67,87.17h-5.26v-5.29h15.95v5.29h-5.37v14.98h-5.32v-14.98Z" style="fill:#fff;"/><path d="M364.06,89.73h4.32v12.42h-4.32v-12.42Zm.3-3.27c0-1.08,.89-2,2-2s1.97,.92,1.97,2-.89,2-1.97,2-2-.92-2-2Z" style="fill:#fff;"/><path d="M392.16,95.4v6.75h-4.08v-6.75c0-1.08-.81-1.89-1.89-1.89-1,0-1.84,.81-1.84,1.89v6.75h-4.1v-6.45c0-1.46-.7-2.19-1.86-2.19-1.08,0-1.92,.81-1.92,2.19v6.45h-4.32v-12.42h4.32v.08c.54-.22,1.19-.35,2.02-.35,1.43,0,2.78,.54,3.83,1.46,1.05-.92,2.51-1.46,4.02-1.46,2.92,0,5.8,2.56,5.8,5.94Z" style="fill:#fff;"/><path d="M395,95.94c0-3.59,2.89-6.48,6.5-6.48s6.42,2.89,6.42,6.48c0,.43-.03,.86-.11,1.29h-9.02c.49,.97,1.51,1.67,2.7,1.67,.51,0,1.03-.13,1.43-.38l2.56,2.56c-1.13,.81-2.51,1.32-4,1.32-3.62,0-6.5-2.86-6.5-6.48Zm9.1-1.24c-.43-1-1.4-1.7-2.59-1.7s-2.24,.7-2.73,1.7h5.32Z" style="fill:#fff;"/><path d="M409.69,98.45h3.56c0,.57,.51,1,1.35,1,.78,0,1.24-.41,1.24-1s-.49-1-1.32-1c-2.35,0-4.8-1.51-4.8-3.94,0-2.56,2.4-4.05,4.8-4.05s4.86,1.7,4.86,4h-3.54c0-.46-.43-.97-1.32-.97-.65,0-1.24,.35-1.24,.97s.59,1,1.38,1c1.54,0,4.72,.97,4.72,4.08,0,2.35-2.48,3.89-4.8,3.89-3,0-4.89-1.97-4.89-3.97Z" style="fill:#fff;"/></g></svg>